{
  "asset": {
    "generator": "glTF-Transform v2.1.7",
    "version": "2.0"
  },
  "accessors": [
    {
      "type": "VEC3",
      "componentType": 5126,
      "count": 21,
      "max": [
        0.5,
        0.28125,
        0
      ],
      "min": [
        -0.5,
        -0.28125,
        0
      ],
      "bufferView": 0,
      "byteOffset": 0
    },
    {
      "type": "VEC2",
      "componentType": 5126,
      "count": 21,
      "bufferView": 0,
      "byteOffset": 12
    },
    {
      "type": "VEC3",
      "componentType": 5126,
      "count": 40,
      "max": [
        0.05128920078277588,
        0.028750000521540642,
        0
      ],
      "min": [
        -0.05128920078277588,
        -0.028750000521540642,
        0
      ],
      "bufferView": 1,
      "byteOffset": 0
    },
    {
      "type": "VEC2",
      "componentType": 5126,
      "count": 40,
      "bufferView": 1,
      "byteOffset": 12
    },
    {
      "type": "VEC3",
      "componentType": 5126,
      "count": 39,
      "max": [
        0.026506349444389343,
        0.20719128847122192,
        0
      ],
      "min": [
        -0.45237502455711365,
        -0.22662928700447083,
        0
      ],
      "bufferView": 2,
      "byteOffset": 0
    },
    {
      "type": "VEC2",
      "componentType": 5126,
      "count": 39,
      "bufferView": 2,
      "byteOffset": 12
    },
    {
      "type": "VEC3",
      "componentType": 5126,
      "count": 5,
      "max": [
        0.5,
        0.15437500178813934,
        0
      ],
      "min": [
        -0.5009999871253967,
        -0.1536249965429306,
        0
      ],
      "bufferView": 3,
      "byteOffset": 0
    },
    {
      "type": "VEC2",
      "componentType": 5126,
      "count": 5,
      "bufferView": 3,
      "byteOffset": 12
    },
    {
      "type": "VEC3",
      "componentType": 5126,
      "count": 4,
      "max": [
        0.06400000303983688,
        0.06400000303983688,
        0
      ],
      "min": [
        -0.06400000303983688,
        -0.06400000303983688,
        0
      ],
      "bufferView": 4,
      "byteOffset": 0
    },
    {
      "type": "VEC2",
      "componentType": 5126,
      "count": 4,
      "bufferView": 4,
      "byteOffset": 12
    },
    {
      "type": "VEC3",
      "componentType": 5126,
      "count": 8,
      "max": [
        0.0689999982714653,
        0.17137500643730164,
        0
      ],
      "min": [
        -0.07000000029802322,
        -0.16962499916553497,
        0
      ],
      "bufferView": 5,
      "byteOffset": 0
    },
    {
      "type": "VEC2",
      "componentType": 5126,
      "count": 8,
      "bufferView": 5,
      "byteOffset": 12
    },
    {
      "type": "VEC3",
      "componentType": 5126,
      "count": 17,
      "max": [
        0.1445000022649765,
        0.12600000202655792,
        0
      ],
      "min": [
        -0.1445000022649765,
        -0.125,
        0
      ],
      "bufferView": 6,
      "byteOffset": 0
    },
    {
      "type": "VEC2",
      "componentType": 5126,
      "count": 17,
      "bufferView": 6,
      "byteOffset": 12
    },
    {
      "type": "VEC3",
      "componentType": 5126,
      "count": 4,
      "max": [
        0.11100000143051147,
        0.20999999344348907,
        0
      ],
      "min": [
        -0.1120000034570694,
        -0.20900000631809235,
        0
      ],
      "bufferView": 7,
      "byteOffset": 0
    },
    {
      "type": "VEC2",
      "componentType": 5126,
      "count": 4,
      "bufferView": 7,
      "byteOffset": 12
    },
    {
      "type": "VEC3",
      "componentType": 5126,
      "count": 8,
      "max": [
        0.08449999988079071,
        0.04650000110268593,
        0
      ],
      "min": [
        -0.08550000190734863,
        -0.045499999076128006,
        0
      ],
      "bufferView": 8,
      "byteOffset": 0
    },
    {
      "type": "VEC2",
      "componentType": 5126,
      "count": 8,
      "bufferView": 8,
      "byteOffset": 12
    },
    {
      "type": "VEC3",
      "componentType": 5126,
      "count": 4,
      "max": [
        0.5,
        0.2815000116825104,
        0
      ],
      "min": [
        -0.5009999871253967,
        -0.2815000116825104,
        0
      ],
      "bufferView": 9,
      "byteOffset": 0
    },
    {
      "type": "VEC2",
      "componentType": 5126,
      "count": 4,
      "bufferView": 9,
      "byteOffset": 12
    },
    {
      "type": "SCALAR",
      "componentType": 5121,
      "count": 51,
      "bufferView": 10,
      "byteOffset": 0
    },
    {
      "type": "SCALAR",
      "componentType": 5121,
      "count": 111,
      "bufferView": 10,
      "byteOffset": 52
    },
    {
      "type": "SCALAR",
      "componentType": 5121,
      "count": 105,
      "bufferView": 10,
      "byteOffset": 164
    },
    {
      "type": "SCALAR",
      "componentType": 5121,
      "count": 9,
      "bufferView": 10,
      "byteOffset": 272
    },
    {
      "type": "SCALAR",
      "componentType": 5121,
      "count": 6,
      "bufferView": 10,
      "byteOffset": 284
    },
    {
      "type": "SCALAR",
      "componentType": 5121,
      "count": 18,
      "bufferView": 10,
      "byteOffset": 292
    },
    {
      "type": "SCALAR",
      "componentType": 5121,
      "count": 51,
      "bufferView": 10,
      "byteOffset": 312
    },
    {
      "type": "SCALAR",
      "componentType": 5121,
      "count": 6,
      "bufferView": 10,
      "byteOffset": 364
    },
    {
      "type": "SCALAR",
      "componentType": 5121,
      "count": 18,
      "bufferView": 10,
      "byteOffset": 372
    },
    {
      "type": "SCALAR",
      "componentType": 5121,
      "count": 6,
      "bufferView": 10,
      "byteOffset": 392
    }
  ],
  "bufferViews": [
    {
      "buffer": 0,
      "byteOffset": 0,
      "byteLength": 420,
      "byteStride": 20,
      "target": 34962
    },
    {
      "buffer": 0,
      "byteOffset": 420,
      "byteLength": 800,
      "byteStride": 20,
      "target": 34962
    },
    {
      "buffer": 0,
      "byteOffset": 1220,
      "byteLength": 780,
      "byteStride": 20,
      "target": 34962
    },
    {
      "buffer": 0,
      "byteOffset": 2000,
      "byteLength": 100,
      "byteStride": 20,
      "target": 34962
    },
    {
      "buffer": 0,
      "byteOffset": 2100,
      "byteLength": 80,
      "byteStride": 20,
      "target": 34962
    },
    {
      "buffer": 0,
      "byteOffset": 2180,
      "byteLength": 160,
      "byteStride": 20,
      "target": 34962
    },
    {
      "buffer": 0,
      "byteOffset": 2340,
      "byteLength": 340,
      "byteStride": 20,
      "target": 34962
    },
    {
      "buffer": 0,
      "byteOffset": 2680,
      "byteLength": 80,
      "byteStride": 20,
      "target": 34962
    },
    {
      "buffer": 0,
      "byteOffset": 2760,
      "byteLength": 160,
      "byteStride": 20,
      "target": 34962
    },
    {
      "buffer": 0,
      "byteOffset": 2920,
      "byteLength": 80,
      "byteStride": 20,
      "target": 34962
    },
    {
      "buffer": 0,
      "byteOffset": 3000,
      "byteLength": 400,
      "target": 34963
    }
  ],
  "samplers": [
    {
      "minFilter": 9987,
      "wrapS": 33071,
      "wrapT": 33071
    },
    {
      "minFilter": 9985,
      "wrapS": 33071,
      "wrapT": 33071
    }
  ],
  "textures": [
    {
      "sampler": 0,
      "extensions": {
        "KHR_texture_basisu": {
          "source": 0
        }
      }
    },
    {
      "sampler": 1,
      "extensions": {
        "KHR_texture_basisu": {
          "source": 1
        }
      }
    },
    {
      "sampler": 1,
      "extensions": {
        "KHR_texture_basisu": {
          "source": 2
        }
      }
    }
  ],
  "images": [
    {
      "name": "sactx-0-1024x2048-Uncompressed-scene_3_9_atlas-d786bf64",
      "mimeType": "image/ktx2",
      "uri": "sactx-0-1024x2048-Uncompressed-scene_3_9_atlas-d786bf64.ktx2"
    },
    {
      "name": "Story_3_step_7",
      "mimeType": "image/ktx2",
      "uri": "Story_3_step_7.ktx2"
    },
    {
      "name": "other",
      "mimeType": "image/ktx2",
      "uri": "other.ktx2"
    }
  ],
  "buffers": [
    {
      "uri": "scene_8.bin",
      "byteLength": 3400
    }
  ],
  "materials": [
    {
      "name": "Sprites-Default",
      "alphaMode": "BLEND",
      "pbrMetallicRoughness": {
        "baseColorTexture": {
          "index": 0
        }
      },
      "extensions": {
        "KHR_materials_unlit": {}
      }
    },
    {
      "name": "Sprites-Default",
      "alphaMode": "BLEND",
      "pbrMetallicRoughness": {
        "baseColorTexture": {
          "index": 1
        }
      },
      "extensions": {
        "KHR_materials_unlit": {}
      }
    },
    {
      "name": "Sprites-Default",
      "alphaMode": "BLEND",
      "pbrMetallicRoughness": {
        "baseColorTexture": {
          "index": 2
        }
      },
      "extensions": {
        "KHR_materials_unlit": {}
      }
    }
  ],
  "meshes": [
    {
      "name": "sol",
      "primitives": [
        {
          "attributes": {
            "POSITION": 0,
            "TEXCOORD_0": 1
          },
          "mode": 4,
          "material": 0,
          "indices": 20
        }
      ]
    },
    {
      "name": "chaussure",
      "primitives": [
        {
          "attributes": {
            "POSITION": 2,
            "TEXCOORD_0": 3
          },
          "mode": 4,
          "material": 0,
          "indices": 21
        }
      ]
    },
    {
      "name": "hair",
      "primitives": [
        {
          "attributes": {
            "POSITION": 4,
            "TEXCOORD_0": 5
          },
          "mode": 4,
          "material": 0,
          "indices": 22
        }
      ]
    },
    {
      "name": "sol_2",
      "primitives": [
        {
          "attributes": {
            "POSITION": 6,
            "TEXCOORD_0": 7
          },
          "mode": 4,
          "material": 1,
          "indices": 23
        }
      ]
    },
    {
      "name": "particles",
      "primitives": [
        {
          "attributes": {
            "POSITION": 8,
            "TEXCOORD_0": 9
          },
          "mode": 4,
          "material": 2,
          "indices": 24
        }
      ]
    },
    {
      "name": "lampe",
      "primitives": [
        {
          "attributes": {
            "POSITION": 10,
            "TEXCOORD_0": 11
          },
          "mode": 4,
          "material": 1,
          "indices": 25
        }
      ]
    },
    {
      "name": "table",
      "primitives": [
        {
          "attributes": {
            "POSITION": 12,
            "TEXCOORD_0": 13
          },
          "mode": 4,
          "material": 1,
          "indices": 26
        }
      ]
    },
    {
      "name": "biblio",
      "primitives": [
        {
          "attributes": {
            "POSITION": 14,
            "TEXCOORD_0": 15
          },
          "mode": 4,
          "material": 1,
          "indices": 27
        }
      ]
    },
    {
      "name": "ant",
      "primitives": [
        {
          "attributes": {
            "POSITION": 16,
            "TEXCOORD_0": 17
          },
          "mode": 4,
          "material": 1,
          "indices": 28
        }
      ]
    },
    {
      "name": "terrier",
      "primitives": [
        {
          "attributes": {
            "POSITION": 18,
            "TEXCOORD_0": 19
          },
          "mode": 4,
          "material": 1,
          "indices": 29
        }
      ]
    }
  ],
  "nodes": [
    {
      "name": "scene_8",
      "children": [
        1,
        3,
        8,
        13
      ]
    },
    {
      "name": "layer_01",
      "children": [
        2
      ]
    },
    {
      "name": "sol",
      "extras": {
        "renderOrder": 12,
        "renderLayer": "Default"
      },
      "mesh": 0
    },
    {
      "name": "layer_02",
      "children": [
        4,
        5,
        6,
        7
      ]
    },
    {
      "name": "chaussure",
      "extras": {
        "renderOrder": 10,
        "renderLayer": "Default"
      },
      "translation": [
        0.06637499,
        -0.210875,
        0
      ],
      "mesh": 1
    },
    {
      "name": "hair",
      "extras": {
        "renderOrder": 9,
        "renderLayer": "Default"
      },
      "translation": [
        -0.0163750052,
        -0.00131249428,
        0
      ],
      "mesh": 2
    },
    {
      "name": "sol_2",
      "extras": {
        "renderOrder": 8,
        "renderLayer": "Default"
      },
      "translation": [
        0,
        -0.1276875,
        0
      ],
      "mesh": 3
    },
    {
      "name": "particles",
      "extras": {
        "renderOrder": 7,
        "renderLayer": "Default"
      },
      "mesh": 4
    },
    {
      "name": "layer_03",
      "children": [
        9,
        10,
        11,
        12
      ]
    },
    {
      "name": "lampe",
      "extras": {
        "renderOrder": 6,
        "renderLayer": "Default"
      },
      "translation": [
        -0.0522500277,
        -0.00131249428,
        0
      ],
      "mesh": 5
    },
    {
      "name": "table",
      "extras": {
        "renderOrder": 5,
        "renderLayer": "Default"
      },
      "translation": [
        0.08812499,
        -0.055812493,
        0
      ],
      "mesh": 6
    },
    {
      "name": "light",
      "extras": {
        "renderOrder": 4,
        "renderLayer": "Default"
      },
      "translation": [
        -0.5,
        0.282,
        0
      ],
      "mesh": 4
    },
    {
      "name": "biblio",
      "extras": {
        "renderOrder": 4,
        "renderLayer": "Default"
      },
      "translation": [
        -0.36025,
        0.0304375,
        0
      ],
      "mesh": 7
    },
    {
      "name": "layer_04",
      "children": [
        14,
        15
      ]
    },
    {
      "name": "ant",
      "extras": {
        "renderOrder": 2,
        "renderLayer": "Default"
      },
      "translation": [
        0.1536875,
        0.1493125,
        0
      ],
      "mesh": 8
    },
    {
      "name": "terrier",
      "extras": {
        "renderOrder": 1,
        "renderLayer": "Default"
      },
      "mesh": 9
    }
  ],
  "scenes": [
    {
      "name": "scene_8",
      "nodes": [
        0
      ]
    }
  ],
  "scene": 0,
  "extensionsUsed": [
    "KHR_materials_unlit",
    "KHR_texture_basisu"
  ],
  "extensionsRequired": [
    "KHR_materials_unlit",
    "KHR_texture_basisu"
  ]
}