{
  "asset": {
    "generator": "glTF-Transform v2.1.7",
    "version": "2.0"
  },
  "accessors": [
    {
      "type": "VEC3",
      "componentType": 5126,
      "count": 23,
      "max": [
        0.03749999776482582,
        0.01237792894244194,
        0
      ],
      "min": [
        -0.03749999776482582,
        -0.01237792894244194,
        0
      ],
      "bufferView": 0,
      "byteOffset": 0
    },
    {
      "type": "VEC2",
      "componentType": 5126,
      "count": 23,
      "bufferView": 0,
      "byteOffset": 12
    },
    {
      "type": "VEC3",
      "componentType": 5126,
      "count": 38,
      "max": [
        0.09259355068206787,
        0.056062500923871994,
        0
      ],
      "min": [
        -0.09259355068206787,
        -0.056062500923871994,
        0
      ],
      "bufferView": 1,
      "byteOffset": 0
    },
    {
      "type": "VEC2",
      "componentType": 5126,
      "count": 38,
      "bufferView": 1,
      "byteOffset": 12
    },
    {
      "type": "VEC3",
      "componentType": 5126,
      "count": 35,
      "max": [
        0.06671398878097534,
        0.12331249564886093,
        0
      ],
      "min": [
        -0.06671398878097534,
        -0.12331249564886093,
        0
      ],
      "bufferView": 2,
      "byteOffset": 0
    },
    {
      "type": "VEC2",
      "componentType": 5126,
      "count": 35,
      "bufferView": 2,
      "byteOffset": 12
    },
    {
      "type": "VEC3",
      "componentType": 5126,
      "count": 56,
      "max": [
        0.08916137367486954,
        0.09412499517202377,
        0
      ],
      "min": [
        -0.08916137367486954,
        -0.09412499517202377,
        0
      ],
      "bufferView": 3,
      "byteOffset": 0
    },
    {
      "type": "VEC2",
      "componentType": 5126,
      "count": 56,
      "bufferView": 3,
      "byteOffset": 12
    },
    {
      "type": "VEC3",
      "componentType": 5126,
      "count": 10,
      "max": [
        0.015687499195337296,
        0.011062500067055225,
        0
      ],
      "min": [
        -0.015687499195337296,
        -0.011062500067055225,
        0
      ],
      "bufferView": 4,
      "byteOffset": 0
    },
    {
      "type": "VEC2",
      "componentType": 5126,
      "count": 10,
      "bufferView": 4,
      "byteOffset": 12
    },
    {
      "type": "VEC3",
      "componentType": 5126,
      "count": 49,
      "max": [
        0.15382705628871918,
        0.1354999989271164,
        0
      ],
      "min": [
        -0.15382705628871918,
        -0.1354999989271164,
        0
      ],
      "bufferView": 5,
      "byteOffset": 0
    },
    {
      "type": "VEC2",
      "componentType": 5126,
      "count": 49,
      "bufferView": 5,
      "byteOffset": 12
    },
    {
      "type": "VEC3",
      "componentType": 5126,
      "count": 69,
      "max": [
        0.048777833580970764,
        0.06212500482797623,
        0
      ],
      "min": [
        -0.048777833580970764,
        -0.06212500482797623,
        0
      ],
      "bufferView": 6,
      "byteOffset": 0
    },
    {
      "type": "VEC2",
      "componentType": 5126,
      "count": 69,
      "bufferView": 6,
      "byteOffset": 12
    },
    {
      "type": "VEC3",
      "componentType": 5126,
      "count": 4,
      "max": [
        0.06400000303983688,
        0.06400000303983688,
        0
      ],
      "min": [
        -0.06400000303983688,
        -0.06400000303983688,
        0
      ],
      "bufferView": 7,
      "byteOffset": 0
    },
    {
      "type": "VEC2",
      "componentType": 5126,
      "count": 4,
      "bufferView": 7,
      "byteOffset": 12
    },
    {
      "type": "VEC3",
      "componentType": 5126,
      "count": 35,
      "max": [
        0.11181250214576721,
        0.18467096984386444,
        0
      ],
      "min": [
        -0.11181250214576721,
        -0.18467096984386444,
        0
      ],
      "bufferView": 8,
      "byteOffset": 0
    },
    {
      "type": "VEC2",
      "componentType": 5126,
      "count": 35,
      "bufferView": 8,
      "byteOffset": 12
    },
    {
      "type": "VEC3",
      "componentType": 5126,
      "count": 42,
      "max": [
        0.044749997556209564,
        0.09708474576473236,
        0
      ],
      "min": [
        -0.044749997556209564,
        -0.09708474576473236,
        0
      ],
      "bufferView": 9,
      "byteOffset": 0
    },
    {
      "type": "VEC2",
      "componentType": 5126,
      "count": 42,
      "bufferView": 9,
      "byteOffset": 12
    },
    {
      "type": "VEC3",
      "componentType": 5126,
      "count": 225,
      "max": [
        0.19558371603488922,
        0.24513797461986542,
        0
      ],
      "min": [
        -0.19606250524520874,
        -0.24513797461986542,
        0
      ],
      "bufferView": 10,
      "byteOffset": 0
    },
    {
      "type": "VEC2",
      "componentType": 5126,
      "count": 225,
      "bufferView": 10,
      "byteOffset": 12
    },
    {
      "type": "VEC3",
      "componentType": 5126,
      "count": 45,
      "max": [
        0.19154930114746094,
        0.15937499701976776,
        0
      ],
      "min": [
        -0.19154930114746094,
        -0.15937499701976776,
        0
      ],
      "bufferView": 11,
      "byteOffset": 0
    },
    {
      "type": "VEC2",
      "componentType": 5126,
      "count": 45,
      "bufferView": 11,
      "byteOffset": 12
    },
    {
      "type": "VEC3",
      "componentType": 5126,
      "count": 72,
      "max": [
        0.5,
        0.13671875,
        0
      ],
      "min": [
        -0.5,
        -0.13671875,
        0
      ],
      "bufferView": 12,
      "byteOffset": 0
    },
    {
      "type": "VEC2",
      "componentType": 5126,
      "count": 72,
      "bufferView": 12,
      "byteOffset": 12
    },
    {
      "type": "VEC3",
      "componentType": 5126,
      "count": 39,
      "max": [
        0.1655624955892563,
        0.07308032363653183,
        0
      ],
      "min": [
        -0.1655624955892563,
        -0.07308032363653183,
        0
      ],
      "bufferView": 13,
      "byteOffset": 0
    },
    {
      "type": "VEC2",
      "componentType": 5126,
      "count": 39,
      "bufferView": 13,
      "byteOffset": 12
    },
    {
      "type": "VEC3",
      "componentType": 5126,
      "count": 41,
      "max": [
        0.5,
        0.259765625,
        0
      ],
      "min": [
        -0.5,
        -0.259765625,
        0
      ],
      "bufferView": 14,
      "byteOffset": 0
    },
    {
      "type": "VEC2",
      "componentType": 5126,
      "count": 41,
      "bufferView": 14,
      "byteOffset": 12
    },
    {
      "type": "VEC3",
      "componentType": 5126,
      "count": 4,
      "max": [
        0.5,
        0.28125,
        0
      ],
      "min": [
        -0.5,
        -0.28125,
        0
      ],
      "bufferView": 15,
      "byteOffset": 0
    },
    {
      "type": "VEC2",
      "componentType": 5126,
      "count": 4,
      "bufferView": 15,
      "byteOffset": 12
    },
    {
      "type": "SCALAR",
      "componentType": 5121,
      "count": 63,
      "bufferView": 16,
      "byteOffset": 0
    },
    {
      "type": "SCALAR",
      "componentType": 5121,
      "count": 108,
      "bufferView": 16,
      "byteOffset": 64
    },
    {
      "type": "SCALAR",
      "componentType": 5121,
      "count": 114,
      "bufferView": 16,
      "byteOffset": 172
    },
    {
      "type": "SCALAR",
      "componentType": 5121,
      "count": 162,
      "bufferView": 16,
      "byteOffset": 288
    },
    {
      "type": "SCALAR",
      "componentType": 5121,
      "count": 24,
      "bufferView": 16,
      "byteOffset": 452
    },
    {
      "type": "SCALAR",
      "componentType": 5121,
      "count": 168,
      "bufferView": 16,
      "byteOffset": 476
    },
    {
      "type": "SCALAR",
      "componentType": 5121,
      "count": 192,
      "bufferView": 16,
      "byteOffset": 644
    },
    {
      "type": "SCALAR",
      "componentType": 5121,
      "count": 6,
      "bufferView": 16,
      "byteOffset": 836
    },
    {
      "type": "SCALAR",
      "componentType": 5121,
      "count": 99,
      "bufferView": 16,
      "byteOffset": 844
    },
    {
      "type": "SCALAR",
      "componentType": 5121,
      "count": 120,
      "bufferView": 16,
      "byteOffset": 944
    },
    {
      "type": "SCALAR",
      "componentType": 5121,
      "count": 693,
      "bufferView": 16,
      "byteOffset": 1064
    },
    {
      "type": "SCALAR",
      "componentType": 5121,
      "count": 135,
      "bufferView": 16,
      "byteOffset": 1760
    },
    {
      "type": "SCALAR",
      "componentType": 5121,
      "count": 219,
      "bufferView": 16,
      "byteOffset": 1896
    },
    {
      "type": "SCALAR",
      "componentType": 5121,
      "count": 117,
      "bufferView": 16,
      "byteOffset": 2116
    },
    {
      "type": "SCALAR",
      "componentType": 5121,
      "count": 117,
      "bufferView": 16,
      "byteOffset": 2236
    },
    {
      "type": "SCALAR",
      "componentType": 5121,
      "count": 6,
      "bufferView": 16,
      "byteOffset": 2356
    }
  ],
  "bufferViews": [
    {
      "buffer": 0,
      "byteOffset": 0,
      "byteLength": 460,
      "byteStride": 20,
      "target": 34962
    },
    {
      "buffer": 0,
      "byteOffset": 460,
      "byteLength": 760,
      "byteStride": 20,
      "target": 34962
    },
    {
      "buffer": 0,
      "byteOffset": 1220,
      "byteLength": 700,
      "byteStride": 20,
      "target": 34962
    },
    {
      "buffer": 0,
      "byteOffset": 1920,
      "byteLength": 1120,
      "byteStride": 20,
      "target": 34962
    },
    {
      "buffer": 0,
      "byteOffset": 3040,
      "byteLength": 200,
      "byteStride": 20,
      "target": 34962
    },
    {
      "buffer": 0,
      "byteOffset": 3240,
      "byteLength": 980,
      "byteStride": 20,
      "target": 34962
    },
    {
      "buffer": 0,
      "byteOffset": 4220,
      "byteLength": 1380,
      "byteStride": 20,
      "target": 34962
    },
    {
      "buffer": 0,
      "byteOffset": 5600,
      "byteLength": 80,
      "byteStride": 20,
      "target": 34962
    },
    {
      "buffer": 0,
      "byteOffset": 5680,
      "byteLength": 700,
      "byteStride": 20,
      "target": 34962
    },
    {
      "buffer": 0,
      "byteOffset": 6380,
      "byteLength": 840,
      "byteStride": 20,
      "target": 34962
    },
    {
      "buffer": 0,
      "byteOffset": 7220,
      "byteLength": 4500,
      "byteStride": 20,
      "target": 34962
    },
    {
      "buffer": 0,
      "byteOffset": 11720,
      "byteLength": 900,
      "byteStride": 20,
      "target": 34962
    },
    {
      "buffer": 0,
      "byteOffset": 12620,
      "byteLength": 1440,
      "byteStride": 20,
      "target": 34962
    },
    {
      "buffer": 0,
      "byteOffset": 14060,
      "byteLength": 780,
      "byteStride": 20,
      "target": 34962
    },
    {
      "buffer": 0,
      "byteOffset": 14840,
      "byteLength": 820,
      "byteStride": 20,
      "target": 34962
    },
    {
      "buffer": 0,
      "byteOffset": 15660,
      "byteLength": 80,
      "byteStride": 20,
      "target": 34962
    },
    {
      "buffer": 0,
      "byteOffset": 15740,
      "byteLength": 2364,
      "target": 34963
    }
  ],
  "samplers": [
    {
      "minFilter": 9987,
      "wrapS": 33071,
      "wrapT": 33071
    },
    {
      "minFilter": 9985,
      "wrapS": 33071,
      "wrapT": 33071
    }
  ],
  "textures": [
    {
      "sampler": 0,
      "extensions": {
        "KHR_texture_basisu": {
          "source": 0
        }
      }
    },
    {
      "source": 1,
      "sampler": 0
    },
    {
      "sampler": 1,
      "extensions": {
        "KHR_texture_basisu": {
          "source": 2
        }
      }
    }
  ],
  "images": [
    {
      "name": "sactx-0-2048x2048-Uncompressed-scene_4_11_atlas-607195b9",
      "mimeType": "image/ktx2",
      "uri": "sactx-0-2048x2048-Uncompressed-scene_4_11_atlas-607195b9.ktx2"
    },
    {
      "name": "boy_hand_1",
      "mimeType": "image/png",
      "uri": "boy_hand_1.png"
    },
    {
      "name": "user_avatar",
      "mimeType": "image/ktx2",
      "uri": "user_avatar.ktx2"
    }
  ],
  "buffers": [
    {
      "uri": "scene_10.bin",
      "byteLength": 18104
    }
  ],
  "materials": [
    {
      "name": "Sprites-Default",
      "alphaMode": "BLEND",
      "pbrMetallicRoughness": {
        "baseColorTexture": {
          "index": 0
        }
      },
      "extensions": {
        "KHR_materials_unlit": {}
      }
    },
    {
      "name": "skin",
      "alphaMode": "BLEND",
      "pbrMetallicRoughness": {
        "baseColorTexture": {
          "index": 1
        }
      },
      "extensions": {
        "KHR_materials_unlit": {}
      }
    },
    {
      "name": "avatar",
      "alphaMode": "BLEND",
      "pbrMetallicRoughness": {
        "baseColorTexture": {
          "index": 2
        }
      },
      "extensions": {
        "KHR_materials_unlit": {}
      }
    }
  ],
  "meshes": [
    {
      "name": "pierre",
      "primitives": [
        {
          "attributes": {
            "POSITION": 0,
            "TEXCOORD_0": 1
          },
          "mode": 4,
          "material": 0,
          "indices": 32
        }
      ]
    },
    {
      "name": "bariere",
      "primitives": [
        {
          "attributes": {
            "POSITION": 2,
            "TEXCOORD_0": 3
          },
          "mode": 4,
          "material": 0,
          "indices": 33
        }
      ]
    },
    {
      "name": "hair",
      "primitives": [
        {
          "attributes": {
            "POSITION": 4,
            "TEXCOORD_0": 5
          },
          "mode": 4,
          "material": 0,
          "indices": 34
        }
      ]
    },
    {
      "name": "dog",
      "primitives": [
        {
          "attributes": {
            "POSITION": 6,
            "TEXCOORD_0": 7
          },
          "mode": 4,
          "material": 0,
          "indices": 35
        }
      ]
    },
    {
      "name": "boy_hand_1",
      "primitives": [
        {
          "attributes": {
            "POSITION": 8,
            "TEXCOORD_0": 9
          },
          "mode": 4,
          "material": 1,
          "indices": 36
        }
      ]
    },
    {
      "name": "serve",
      "primitives": [
        {
          "attributes": {
            "POSITION": 10,
            "TEXCOORD_0": 11
          },
          "mode": 4,
          "material": 0,
          "indices": 37
        }
      ]
    },
    {
      "name": "shirt",
      "primitives": [
        {
          "attributes": {
            "POSITION": 12,
            "TEXCOORD_0": 13
          },
          "mode": 4,
          "material": 0,
          "indices": 38
        }
      ]
    },
    {
      "name": "user_avatar",
      "primitives": [
        {
          "attributes": {
            "POSITION": 14,
            "TEXCOORD_0": 15
          },
          "mode": 4,
          "material": 2,
          "indices": 39
        }
      ]
    },
    {
      "name": "sheep",
      "primitives": [
        {
          "attributes": {
            "POSITION": 16,
            "TEXCOORD_0": 17
          },
          "mode": 4,
          "material": 0,
          "indices": 40
        }
      ]
    },
    {
      "name": "ant",
      "primitives": [
        {
          "attributes": {
            "POSITION": 18,
            "TEXCOORD_0": 19
          },
          "mode": 4,
          "material": 0,
          "indices": 41
        }
      ]
    },
    {
      "name": "bear",
      "primitives": [
        {
          "attributes": {
            "POSITION": 20,
            "TEXCOORD_0": 21
          },
          "mode": 4,
          "material": 0,
          "indices": 42
        }
      ]
    },
    {
      "name": "fuillage",
      "primitives": [
        {
          "attributes": {
            "POSITION": 22,
            "TEXCOORD_0": 23
          },
          "mode": 4,
          "material": 0,
          "indices": 43
        }
      ]
    },
    {
      "name": "plaine",
      "primitives": [
        {
          "attributes": {
            "POSITION": 24,
            "TEXCOORD_0": 25
          },
          "mode": 4,
          "material": 0,
          "indices": 44
        }
      ]
    },
    {
      "name": "bariere_2",
      "primitives": [
        {
          "attributes": {
            "POSITION": 26,
            "TEXCOORD_0": 27
          },
          "mode": 4,
          "material": 0,
          "indices": 45
        }
      ]
    },
    {
      "name": "montagne",
      "primitives": [
        {
          "attributes": {
            "POSITION": 28,
            "TEXCOORD_0": 29
          },
          "mode": 4,
          "material": 0,
          "indices": 46
        }
      ]
    },
    {
      "name": "ciel",
      "primitives": [
        {
          "attributes": {
            "POSITION": 30,
            "TEXCOORD_0": 31
          },
          "mode": 4,
          "material": 0,
          "indices": 47
        }
      ]
    }
  ],
  "nodes": [
    {
      "name": "scene_10",
      "children": [
        1,
        4,
        16,
        20,
        22
      ]
    },
    {
      "name": "layer_01",
      "children": [
        2,
        3
      ]
    },
    {
      "name": "pierre",
      "extras": {
        "renderOrder": 22,
        "renderLayer": "Default"
      },
      "translation": [
        -0.151125014,
        -0.268875,
        0
      ],
      "mesh": 0
    },
    {
      "name": "bariere",
      "extras": {
        "renderOrder": 21,
        "renderLayer": "Default"
      },
      "translation": [
        0.4075,
        -0.2251875,
        0
      ],
      "mesh": 1
    },
    {
      "name": "layer_02",
      "children": [
        5,
        6,
        7,
        12,
        13,
        14,
        15
      ]
    },
    {
      "name": "hair",
      "extras": {
        "renderOrder": 19,
        "renderLayer": "Default"
      },
      "translation": [
        0.0294375122,
        -0.1579375,
        0
      ],
      "mesh": 2
    },
    {
      "name": "dog",
      "extras": {
        "renderOrder": 18,
        "renderLayer": "Default"
      },
      "translation": [
        -0.239624977,
        -0.187125,
        0
      ],
      "mesh": 3
    },
    {
      "name": "boy",
      "children": [
        8,
        9,
        10,
        11
      ]
    },
    {
      "name": "boy_hand_1",
      "extras": {
        "renderOrder": 15,
        "renderLayer": "Default"
      },
      "translation": [
        -0.09618747,
        -0.2155625,
        0
      ],
      "mesh": 4
    },
    {
      "name": "serve",
      "extras": {
        "renderOrder": 14,
        "renderLayer": "Default"
      },
      "translation": [
        -0.209687471,
        -0.08337501,
        0
      ],
      "mesh": 5
    },
    {
      "name": "shirt",
      "extras": {
        "renderOrder": 13,
        "renderLayer": "Default"
      },
      "translation": [
        -0.0899999738,
        -0.219125,
        0
      ],
      "mesh": 6
    },
    {
      "name": "user_avatar",
      "extras": {
        "renderOrder": 12,
        "renderLayer": "Default"
      },
      "translation": [
        -0.0656,
        -0.0825,
        0
      ],
      "rotation": [
        0,
        0,
        -0.03235477,
        0.9994765
      ],
      "scale": [
        -2.429905,
        2.429905,
        2.4299047
      ],
      "mesh": 7
    },
    {
      "name": "sheep",
      "extras": {
        "renderOrder": 11,
        "renderLayer": "Default"
      },
      "translation": [
        -0.388187528,
        -0.0968125,
        0
      ],
      "mesh": 8
    },
    {
      "name": "ant",
      "extras": {
        "renderOrder": 10,
        "renderLayer": "Default"
      },
      "translation": [
        -0.425499976,
        0.0765,
        0
      ],
      "mesh": 9
    },
    {
      "name": "bear",
      "extras": {
        "renderOrder": 9,
        "renderLayer": "Default"
      },
      "translation": [
        -0.183562517,
        -0.0361875,
        0
      ],
      "mesh": 10
    },
    {
      "name": "particles",
      "extras": {
        "renderOrder": 9,
        "renderLayer": "Default"
      },
      "mesh": 7
    },
    {
      "name": "layer_03",
      "children": [
        17,
        18,
        19
      ]
    },
    {
      "name": "fuillage",
      "extras": {
        "renderOrder": 7,
        "renderLayer": "Default"
      },
      "translation": [
        -0.308624983,
        0.121874988,
        0
      ],
      "mesh": 11
    },
    {
      "name": "plaine",
      "extras": {
        "renderOrder": 6,
        "renderLayer": "Default"
      },
      "translation": [
        0,
        -0.1446875,
        0
      ],
      "mesh": 12
    },
    {
      "name": "bariere_2",
      "extras": {
        "renderOrder": 5,
        "renderLayer": "Default"
      },
      "translation": [
        0.1204375,
        -0.0744999945,
        0
      ],
      "mesh": 13
    },
    {
      "name": "layer_04",
      "children": [
        21
      ]
    },
    {
      "name": "montagne",
      "extras": {
        "renderOrder": 3,
        "renderLayer": "Default"
      },
      "translation": [
        0,
        0.02193749,
        0
      ],
      "mesh": 14
    },
    {
      "name": "layer_05",
      "children": [
        23
      ]
    },
    {
      "name": "ciel",
      "extras": {
        "renderOrder": 1,
        "renderLayer": "Default"
      },
      "mesh": 15
    }
  ],
  "scenes": [
    {
      "name": "scene_10",
      "nodes": [
        0
      ]
    }
  ],
  "scene": 0,
  "extensionsUsed": [
    "KHR_materials_unlit",
    "KHR_texture_basisu"
  ],
  "extensionsRequired": [
    "KHR_materials_unlit",
    "KHR_texture_basisu"
  ]
}