{
  "asset": {
    "generator": "glTF-Transform v2.1.7",
    "version": "2.0"
  },
  "accessors": [
    {
      "type": "VEC3",
      "componentType": 5126,
      "count": 50,
      "max": [
        0.4984375238418579,
        0.11925507336854935,
        0
      ],
      "min": [
        -0.4984375238418579,
        -0.11925507336854935,
        0
      ],
      "bufferView": 0,
      "byteOffset": 0
    },
    {
      "type": "VEC2",
      "componentType": 5126,
      "count": 50,
      "bufferView": 0,
      "byteOffset": 12
    },
    {
      "type": "VEC3",
      "componentType": 5126,
      "count": 37,
      "max": [
        0.0694274976849556,
        0.1093750074505806,
        0
      ],
      "min": [
        -0.0694274976849556,
        -0.1093750074505806,
        0
      ],
      "bufferView": 1,
      "byteOffset": 0
    },
    {
      "type": "VEC2",
      "componentType": 5126,
      "count": 37,
      "bufferView": 1,
      "byteOffset": 12
    },
    {
      "type": "VEC3",
      "componentType": 5126,
      "count": 43,
      "max": [
        0.08799999952316284,
        0.1146463081240654,
        0
      ],
      "min": [
        -0.08799999952316284,
        -0.1146463081240654,
        0
      ],
      "bufferView": 2,
      "byteOffset": 0
    },
    {
      "type": "VEC2",
      "componentType": 5126,
      "count": 43,
      "bufferView": 2,
      "byteOffset": 12
    },
    {
      "type": "VEC3",
      "componentType": 5126,
      "count": 60,
      "max": [
        0.19946666061878204,
        0.023374998942017555,
        0
      ],
      "min": [
        -0.19946666061878204,
        -0.023374998942017555,
        0
      ],
      "bufferView": 3,
      "byteOffset": 0
    },
    {
      "type": "VEC2",
      "componentType": 5126,
      "count": 60,
      "bufferView": 3,
      "byteOffset": 12
    },
    {
      "type": "VEC3",
      "componentType": 5126,
      "count": 38,
      "max": [
        0.10112500190734863,
        0.16230721771717072,
        0
      ],
      "min": [
        -0.10112500190734863,
        -0.16230721771717072,
        0
      ],
      "bufferView": 4,
      "byteOffset": 0
    },
    {
      "type": "VEC2",
      "componentType": 5126,
      "count": 38,
      "bufferView": 4,
      "byteOffset": 12
    },
    {
      "type": "VEC3",
      "componentType": 5126,
      "count": 9,
      "max": [
        0.31943750381469727,
        0.03930578753352165,
        0
      ],
      "min": [
        -0.31943750381469727,
        -0.03930578753352165,
        0
      ],
      "bufferView": 5,
      "byteOffset": 0
    },
    {
      "type": "VEC2",
      "componentType": 5126,
      "count": 9,
      "bufferView": 5,
      "byteOffset": 12
    },
    {
      "type": "VEC3",
      "componentType": 5126,
      "count": 4,
      "max": [
        0.06400000303983688,
        0.06400000303983688,
        0
      ],
      "min": [
        -0.06400000303983688,
        -0.06400000303983688,
        0
      ],
      "bufferView": 6,
      "byteOffset": 0
    },
    {
      "type": "VEC2",
      "componentType": 5126,
      "count": 4,
      "bufferView": 6,
      "byteOffset": 12
    },
    {
      "type": "VEC3",
      "componentType": 5126,
      "count": 11,
      "max": [
        0.5028045773506165,
        0.08543749898672104,
        0
      ],
      "min": [
        -0.5028045773506165,
        -0.08543749898672104,
        0
      ],
      "bufferView": 7,
      "byteOffset": 0
    },
    {
      "type": "VEC2",
      "componentType": 5126,
      "count": 11,
      "bufferView": 7,
      "byteOffset": 12
    },
    {
      "type": "VEC3",
      "componentType": 5126,
      "count": 37,
      "max": [
        0.12103491276502609,
        0.17118750512599945,
        0
      ],
      "min": [
        -0.12103491276502609,
        -0.17118750512599945,
        0
      ],
      "bufferView": 8,
      "byteOffset": 0
    },
    {
      "type": "VEC2",
      "componentType": 5126,
      "count": 37,
      "bufferView": 8,
      "byteOffset": 12
    },
    {
      "type": "VEC3",
      "componentType": 5126,
      "count": 86,
      "max": [
        0.3933793306350708,
        0.13368751108646393,
        0
      ],
      "min": [
        -0.3933793306350708,
        -0.13368751108646393,
        0
      ],
      "bufferView": 9,
      "byteOffset": 0
    },
    {
      "type": "VEC2",
      "componentType": 5126,
      "count": 86,
      "bufferView": 9,
      "byteOffset": 12
    },
    {
      "type": "VEC3",
      "componentType": 5126,
      "count": 24,
      "max": [
        0.5,
        0.1455078125,
        0
      ],
      "min": [
        -0.5,
        -0.1455078125,
        0
      ],
      "bufferView": 10,
      "byteOffset": 0
    },
    {
      "type": "VEC2",
      "componentType": 5126,
      "count": 24,
      "bufferView": 10,
      "byteOffset": 12
    },
    {
      "type": "VEC3",
      "componentType": 5126,
      "count": 61,
      "max": [
        0.4818750023841858,
        0.15152709186077118,
        0
      ],
      "min": [
        -0.4818750023841858,
        -0.15152709186077118,
        0
      ],
      "bufferView": 11,
      "byteOffset": 0
    },
    {
      "type": "VEC2",
      "componentType": 5126,
      "count": 61,
      "bufferView": 11,
      "byteOffset": 12
    },
    {
      "type": "VEC3",
      "componentType": 5126,
      "count": 29,
      "max": [
        0.501476526260376,
        0.1459375023841858,
        0
      ],
      "min": [
        -0.501476526260376,
        -0.1459375023841858,
        0
      ],
      "bufferView": 12,
      "byteOffset": 0
    },
    {
      "type": "VEC2",
      "componentType": 5126,
      "count": 29,
      "bufferView": 12,
      "byteOffset": 12
    },
    {
      "type": "VEC3",
      "componentType": 5126,
      "count": 44,
      "max": [
        0.49340957403182983,
        0.10118751227855682,
        0
      ],
      "min": [
        -0.49340957403182983,
        -0.10118751227855682,
        0
      ],
      "bufferView": 13,
      "byteOffset": 0
    },
    {
      "type": "VEC2",
      "componentType": 5126,
      "count": 44,
      "bufferView": 13,
      "byteOffset": 12
    },
    {
      "type": "VEC3",
      "componentType": 5126,
      "count": 4,
      "max": [
        0.5,
        0.28125,
        0
      ],
      "min": [
        -0.5,
        -0.28125,
        0
      ],
      "bufferView": 14,
      "byteOffset": 0
    },
    {
      "type": "VEC2",
      "componentType": 5126,
      "count": 4,
      "bufferView": 14,
      "byteOffset": 12
    },
    {
      "type": "SCALAR",
      "componentType": 5121,
      "count": 147,
      "bufferView": 15,
      "byteOffset": 0
    },
    {
      "type": "SCALAR",
      "componentType": 5121,
      "count": 96,
      "bufferView": 15,
      "byteOffset": 148
    },
    {
      "type": "SCALAR",
      "componentType": 5121,
      "count": 132,
      "bufferView": 15,
      "byteOffset": 244
    },
    {
      "type": "SCALAR",
      "componentType": 5121,
      "count": 156,
      "bufferView": 15,
      "byteOffset": 376
    },
    {
      "type": "SCALAR",
      "componentType": 5121,
      "count": 141,
      "bufferView": 15,
      "byteOffset": 532
    },
    {
      "type": "SCALAR",
      "componentType": 5121,
      "count": 21,
      "bufferView": 15,
      "byteOffset": 676
    },
    {
      "type": "SCALAR",
      "componentType": 5121,
      "count": 6,
      "bufferView": 15,
      "byteOffset": 700
    },
    {
      "type": "SCALAR",
      "componentType": 5121,
      "count": 21,
      "bufferView": 15,
      "byteOffset": 708
    },
    {
      "type": "SCALAR",
      "componentType": 5121,
      "count": 114,
      "bufferView": 15,
      "byteOffset": 732
    },
    {
      "type": "SCALAR",
      "componentType": 5121,
      "count": 267,
      "bufferView": 15,
      "byteOffset": 848
    },
    {
      "type": "SCALAR",
      "componentType": 5121,
      "count": 63,
      "bufferView": 15,
      "byteOffset": 1116
    },
    {
      "type": "SCALAR",
      "componentType": 5121,
      "count": 171,
      "bufferView": 15,
      "byteOffset": 1180
    },
    {
      "type": "SCALAR",
      "componentType": 5121,
      "count": 78,
      "bufferView": 15,
      "byteOffset": 1352
    },
    {
      "type": "SCALAR",
      "componentType": 5121,
      "count": 135,
      "bufferView": 15,
      "byteOffset": 1432
    },
    {
      "type": "SCALAR",
      "componentType": 5121,
      "count": 6,
      "bufferView": 15,
      "byteOffset": 1568
    }
  ],
  "bufferViews": [
    {
      "buffer": 0,
      "byteOffset": 0,
      "byteLength": 1000,
      "byteStride": 20,
      "target": 34962
    },
    {
      "buffer": 0,
      "byteOffset": 1000,
      "byteLength": 740,
      "byteStride": 20,
      "target": 34962
    },
    {
      "buffer": 0,
      "byteOffset": 1740,
      "byteLength": 860,
      "byteStride": 20,
      "target": 34962
    },
    {
      "buffer": 0,
      "byteOffset": 2600,
      "byteLength": 1200,
      "byteStride": 20,
      "target": 34962
    },
    {
      "buffer": 0,
      "byteOffset": 3800,
      "byteLength": 760,
      "byteStride": 20,
      "target": 34962
    },
    {
      "buffer": 0,
      "byteOffset": 4560,
      "byteLength": 180,
      "byteStride": 20,
      "target": 34962
    },
    {
      "buffer": 0,
      "byteOffset": 4740,
      "byteLength": 80,
      "byteStride": 20,
      "target": 34962
    },
    {
      "buffer": 0,
      "byteOffset": 4820,
      "byteLength": 220,
      "byteStride": 20,
      "target": 34962
    },
    {
      "buffer": 0,
      "byteOffset": 5040,
      "byteLength": 740,
      "byteStride": 20,
      "target": 34962
    },
    {
      "buffer": 0,
      "byteOffset": 5780,
      "byteLength": 1720,
      "byteStride": 20,
      "target": 34962
    },
    {
      "buffer": 0,
      "byteOffset": 7500,
      "byteLength": 480,
      "byteStride": 20,
      "target": 34962
    },
    {
      "buffer": 0,
      "byteOffset": 7980,
      "byteLength": 1220,
      "byteStride": 20,
      "target": 34962
    },
    {
      "buffer": 0,
      "byteOffset": 9200,
      "byteLength": 580,
      "byteStride": 20,
      "target": 34962
    },
    {
      "buffer": 0,
      "byteOffset": 9780,
      "byteLength": 880,
      "byteStride": 20,
      "target": 34962
    },
    {
      "buffer": 0,
      "byteOffset": 10660,
      "byteLength": 80,
      "byteStride": 20,
      "target": 34962
    },
    {
      "buffer": 0,
      "byteOffset": 10740,
      "byteLength": 1576,
      "target": 34963
    }
  ],
  "samplers": [
    {
      "minFilter": 9987,
      "wrapS": 33071,
      "wrapT": 33071
    },
    {
      "minFilter": 9985,
      "wrapS": 33071,
      "wrapT": 33071
    }
  ],
  "textures": [
    {
      "sampler": 0,
      "extensions": {
        "KHR_texture_basisu": {
          "source": 0
        }
      }
    },
    {
      "sampler": 1,
      "extensions": {
        "KHR_texture_basisu": {
          "source": 1
        }
      }
    }
  ],
  "images": [
    {
      "name": "sactx-0-2048x1024-Uncompressed-scene_3_4_atlas-6c9f7d35",
      "mimeType": "image/ktx2",
      "uri": "sactx-0-2048x1024-Uncompressed-scene_3_4_atlas-6c9f7d35.ktx2"
    },
    {
      "name": "user_avatar",
      "mimeType": "image/ktx2",
      "uri": "user_avatar.ktx2"
    }
  ],
  "buffers": [
    {
      "uri": "scene_3.bin",
      "byteLength": 12316
    }
  ],
  "materials": [
    {
      "name": "Sprites-Default",
      "alphaMode": "BLEND",
      "pbrMetallicRoughness": {
        "baseColorTexture": {
          "index": 0
        }
      },
      "extensions": {
        "KHR_materials_unlit": {}
      }
    },
    {
      "name": "Sprites-Default",
      "alphaMode": "BLEND",
      "pbrMetallicRoughness": {
        "baseColorTexture": {
          "index": 1
        }
      },
      "extensions": {
        "KHR_materials_unlit": {}
      }
    }
  ],
  "meshes": [
    {
      "name": "fleur_blanche",
      "primitives": [
        {
          "attributes": {
            "POSITION": 0,
            "TEXCOORD_0": 1
          },
          "mode": 4,
          "material": 0,
          "indices": 30
        }
      ]
    },
    {
      "name": "herbe_gauche",
      "primitives": [
        {
          "attributes": {
            "POSITION": 2,
            "TEXCOORD_0": 3
          },
          "mode": 4,
          "material": 0,
          "indices": 31
        }
      ]
    },
    {
      "name": "herbe_droite",
      "primitives": [
        {
          "attributes": {
            "POSITION": 4,
            "TEXCOORD_0": 5
          },
          "mode": 4,
          "material": 0,
          "indices": 32
        }
      ]
    },
    {
      "name": "herbe centre",
      "primitives": [
        {
          "attributes": {
            "POSITION": 6,
            "TEXCOORD_0": 7
          },
          "mode": 4,
          "material": 0,
          "indices": 33
        }
      ]
    },
    {
      "name": "ant",
      "primitives": [
        {
          "attributes": {
            "POSITION": 8,
            "TEXCOORD_0": 9
          },
          "mode": 4,
          "material": 0,
          "indices": 34
        }
      ]
    },
    {
      "name": "fourmiliere",
      "primitives": [
        {
          "attributes": {
            "POSITION": 10,
            "TEXCOORD_0": 11
          },
          "mode": 4,
          "material": 0,
          "indices": 35
        }
      ]
    },
    {
      "name": "particles",
      "primitives": [
        {
          "attributes": {
            "POSITION": 12,
            "TEXCOORD_0": 13
          },
          "mode": 4,
          "material": 1,
          "indices": 36
        }
      ]
    },
    {
      "name": "plaine_1",
      "primitives": [
        {
          "attributes": {
            "POSITION": 14,
            "TEXCOORD_0": 15
          },
          "mode": 4,
          "material": 0,
          "indices": 37
        }
      ]
    },
    {
      "name": "sheep",
      "primitives": [
        {
          "attributes": {
            "POSITION": 16,
            "TEXCOORD_0": 17
          },
          "mode": 4,
          "material": 0,
          "indices": 38
        }
      ]
    },
    {
      "name": "plaine_2",
      "primitives": [
        {
          "attributes": {
            "POSITION": 18,
            "TEXCOORD_0": 19
          },
          "mode": 4,
          "material": 0,
          "indices": 39
        }
      ]
    },
    {
      "name": "plaine_3",
      "primitives": [
        {
          "attributes": {
            "POSITION": 20,
            "TEXCOORD_0": 21
          },
          "mode": 4,
          "material": 0,
          "indices": 40
        }
      ]
    },
    {
      "name": "plaine_4",
      "primitives": [
        {
          "attributes": {
            "POSITION": 22,
            "TEXCOORD_0": 23
          },
          "mode": 4,
          "material": 0,
          "indices": 41
        }
      ]
    },
    {
      "name": "arbre",
      "primitives": [
        {
          "attributes": {
            "POSITION": 24,
            "TEXCOORD_0": 25
          },
          "mode": 4,
          "material": 0,
          "indices": 42
        }
      ]
    },
    {
      "name": "buissons",
      "primitives": [
        {
          "attributes": {
            "POSITION": 26,
            "TEXCOORD_0": 27
          },
          "mode": 4,
          "material": 0,
          "indices": 43
        }
      ]
    },
    {
      "name": "ciel",
      "primitives": [
        {
          "attributes": {
            "POSITION": 28,
            "TEXCOORD_0": 29
          },
          "mode": 4,
          "material": 0,
          "indices": 44
        }
      ]
    }
  ],
  "nodes": [
    {
      "name": "scene_3",
      "children": [
        1,
        6,
        10,
        12,
        15,
        21
      ]
    },
    {
      "name": "layer_01",
      "children": [
        2,
        3,
        4,
        5
      ]
    },
    {
      "name": "fleur_blanche",
      "extras": {
        "renderOrder": 19,
        "renderLayer": "Default"
      },
      "translation": [
        0.001562506,
        -0.162124991,
        0
      ],
      "mesh": 0
    },
    {
      "name": "herbe_gauche",
      "extras": {
        "renderOrder": 18,
        "renderLayer": "Default"
      },
      "translation": [
        0.430625,
        -0.171875,
        0
      ],
      "mesh": 1
    },
    {
      "name": "herbe_droite",
      "extras": {
        "renderOrder": 17,
        "renderLayer": "Default"
      },
      "translation": [
        -0.412,
        -0.1666875,
        0
      ],
      "mesh": 2
    },
    {
      "name": "herbe centre",
      "extras": {
        "renderOrder": 16,
        "renderLayer": "Default"
      },
      "translation": [
        -0.009124994,
        -0.257875,
        0
      ],
      "mesh": 3
    },
    {
      "name": "layer_02",
      "children": [
        7,
        8,
        9
      ]
    },
    {
      "name": "ant",
      "extras": {
        "renderOrder": 14,
        "renderLayer": "Default"
      },
      "translation": [
        0.09062499,
        -0.076875,
        0
      ],
      "mesh": 4
    },
    {
      "name": "fourmiliere",
      "extras": {
        "renderOrder": 13,
        "renderLayer": "Default"
      },
      "translation": [
        0.0286875069,
        -0.242,
        0
      ],
      "mesh": 5
    },
    {
      "name": "particles",
      "extras": {
        "renderOrder": 12,
        "renderLayer": "Default"
      },
      "mesh": 6
    },
    {
      "name": "layer_03",
      "children": [
        11
      ]
    },
    {
      "name": "plaine_1",
      "extras": {
        "renderOrder": 11,
        "renderLayer": "Default"
      },
      "translation": [
        0,
        -0.1958125,
        0
      ],
      "mesh": 7
    },
    {
      "name": "layer_04",
      "children": [
        13,
        14
      ]
    },
    {
      "name": "sheep",
      "extras": {
        "renderOrder": 9,
        "renderLayer": "Default"
      },
      "translation": [
        -0.237062514,
        0.02206251,
        0
      ],
      "mesh": 8
    },
    {
      "name": "plaine_2",
      "extras": {
        "renderOrder": 8,
        "renderLayer": "Default"
      },
      "translation": [
        0.04949999,
        -0.1370625,
        0
      ],
      "mesh": 9
    },
    {
      "name": "layer_05",
      "children": [
        16,
        17,
        18,
        19,
        20
      ]
    },
    {
      "name": "plaine_3",
      "extras": {
        "renderOrder": 6,
        "renderLayer": "Default"
      },
      "translation": [
        0,
        -0.08675,
        0
      ],
      "mesh": 10
    },
    {
      "name": "plaine_4",
      "extras": {
        "renderOrder": 5,
        "renderLayer": "Default"
      },
      "translation": [
        -0.0143749714,
        0.0381875038,
        0
      ],
      "mesh": 11
    },
    {
      "name": "arbre",
      "extras": {
        "renderOrder": 4,
        "renderLayer": "Default"
      },
      "translation": [
        0,
        0.1353125,
        0
      ],
      "mesh": 12
    },
    {
      "name": "buissons",
      "extras": {
        "renderOrder": 3,
        "renderLayer": "Default"
      },
      "translation": [
        -0.006812513,
        0.0964375138,
        0
      ],
      "mesh": 13
    },
    {
      "name": "light",
      "extras": {
        "renderOrder": 2,
        "renderLayer": "Default"
      },
      "translation": [
        -0.5,
        0.282,
        0
      ],
      "mesh": 6
    },
    {
      "name": "layer_06",
      "children": [
        22
      ]
    },
    {
      "name": "ciel",
      "extras": {
        "renderOrder": 1,
        "renderLayer": "Default"
      },
      "mesh": 14
    }
  ],
  "scenes": [
    {
      "name": "scene_3",
      "nodes": [
        0
      ]
    }
  ],
  "scene": 0,
  "extensionsUsed": [
    "KHR_materials_unlit",
    "KHR_texture_basisu"
  ],
  "extensionsRequired": [
    "KHR_materials_unlit",
    "KHR_texture_basisu"
  ]
}