{
  "asset": {
    "generator": "glTF-Transform v2.1.7",
    "version": "2.0"
  },
  "accessors": [
    {
      "type": "VEC3",
      "componentType": 5126,
      "count": 25,
      "max": [
        0.42826664447784424,
        0.050187498331069946,
        0
      ],
      "min": [
        -0.42826664447784424,
        -0.050187498331069946,
        0
      ],
      "bufferView": 0,
      "byteOffset": 0
    },
    {
      "type": "VEC2",
      "componentType": 5126,
      "count": 25,
      "bufferView": 0,
      "byteOffset": 12
    },
    {
      "type": "VEC3",
      "componentType": 5126,
      "count": 25,
      "max": [
        0.15040820837020874,
        0.18162500858306885,
        0
      ],
      "min": [
        -0.15040820837020874,
        -0.18162500858306885,
        0
      ],
      "bufferView": 1,
      "byteOffset": 0
    },
    {
      "type": "VEC2",
      "componentType": 5126,
      "count": 25,
      "bufferView": 1,
      "byteOffset": 12
    },
    {
      "type": "VEC3",
      "componentType": 5126,
      "count": 24,
      "max": [
        0.20743750035762787,
        0.06887573003768921,
        0
      ],
      "min": [
        -0.20743750035762787,
        -0.06887573003768921,
        0
      ],
      "bufferView": 2,
      "byteOffset": 0
    },
    {
      "type": "VEC2",
      "componentType": 5126,
      "count": 24,
      "bufferView": 2,
      "byteOffset": 12
    },
    {
      "type": "VEC3",
      "componentType": 5126,
      "count": 26,
      "max": [
        0.25681251287460327,
        0.09831103682518005,
        0
      ],
      "min": [
        -0.25681251287460327,
        -0.09831103682518005,
        0
      ],
      "bufferView": 3,
      "byteOffset": 0
    },
    {
      "type": "VEC2",
      "componentType": 5126,
      "count": 26,
      "bufferView": 3,
      "byteOffset": 12
    },
    {
      "type": "VEC3",
      "componentType": 5126,
      "count": 4,
      "max": [
        0.06400000303983688,
        0.06400000303983688,
        0
      ],
      "min": [
        -0.06400000303983688,
        -0.06400000303983688,
        0
      ],
      "bufferView": 4,
      "byteOffset": 0
    },
    {
      "type": "VEC2",
      "componentType": 5126,
      "count": 4,
      "bufferView": 4,
      "byteOffset": 12
    },
    {
      "type": "VEC3",
      "componentType": 5126,
      "count": 50,
      "max": [
        0.29850128293037415,
        0.22562499344348907,
        0
      ],
      "min": [
        -0.29850128293037415,
        -0.22562499344348907,
        0
      ],
      "bufferView": 5,
      "byteOffset": 0
    },
    {
      "type": "VEC2",
      "componentType": 5126,
      "count": 50,
      "bufferView": 5,
      "byteOffset": 12
    },
    {
      "type": "VEC3",
      "componentType": 5126,
      "count": 89,
      "max": [
        0.21568751335144043,
        0.2813554108142853,
        0
      ],
      "min": [
        -0.21568751335144043,
        -0.2813554108142853,
        0
      ],
      "bufferView": 6,
      "byteOffset": 0
    },
    {
      "type": "VEC2",
      "componentType": 5126,
      "count": 89,
      "bufferView": 6,
      "byteOffset": 12
    },
    {
      "type": "VEC3",
      "componentType": 5126,
      "count": 24,
      "max": [
        0.5000439882278442,
        0.17775000631809235,
        0
      ],
      "min": [
        -0.5000439882278442,
        -0.17775000631809235,
        0
      ],
      "bufferView": 7,
      "byteOffset": 0
    },
    {
      "type": "VEC2",
      "componentType": 5126,
      "count": 24,
      "bufferView": 7,
      "byteOffset": 12
    },
    {
      "type": "VEC3",
      "componentType": 5126,
      "count": 19,
      "max": [
        0.10331249982118607,
        0.2813616991043091,
        0
      ],
      "min": [
        -0.10331249982118607,
        -0.2813616991043091,
        0
      ],
      "bufferView": 8,
      "byteOffset": 0
    },
    {
      "type": "VEC2",
      "componentType": 5126,
      "count": 19,
      "bufferView": 8,
      "byteOffset": 12
    },
    {
      "type": "VEC3",
      "componentType": 5126,
      "count": 26,
      "max": [
        0.2252941131591797,
        0.11968749761581421,
        0
      ],
      "min": [
        -0.2252941131591797,
        -0.11968749761581421,
        0
      ],
      "bufferView": 9,
      "byteOffset": 0
    },
    {
      "type": "VEC2",
      "componentType": 5126,
      "count": 26,
      "bufferView": 9,
      "byteOffset": 12
    },
    {
      "type": "VEC3",
      "componentType": 5126,
      "count": 11,
      "max": [
        0.048124998807907104,
        0.01832885667681694,
        0
      ],
      "min": [
        -0.048124998807907104,
        -0.01832885667681694,
        0
      ],
      "bufferView": 10,
      "byteOffset": 0
    },
    {
      "type": "VEC2",
      "componentType": 5126,
      "count": 11,
      "bufferView": 10,
      "byteOffset": 12
    },
    {
      "type": "VEC3",
      "componentType": 5126,
      "count": 19,
      "max": [
        0.11024999618530273,
        0.2808358073234558,
        0
      ],
      "min": [
        -0.11024999618530273,
        -0.2808358073234558,
        0
      ],
      "bufferView": 11,
      "byteOffset": 0
    },
    {
      "type": "VEC2",
      "componentType": 5126,
      "count": 19,
      "bufferView": 11,
      "byteOffset": 12
    },
    {
      "type": "VEC3",
      "componentType": 5126,
      "count": 35,
      "max": [
        0.14675000309944153,
        0.28140825033187866,
        0
      ],
      "min": [
        -0.14675000309944153,
        -0.28140825033187866,
        0
      ],
      "bufferView": 12,
      "byteOffset": 0
    },
    {
      "type": "VEC2",
      "componentType": 5126,
      "count": 35,
      "bufferView": 12,
      "byteOffset": 12
    },
    {
      "type": "VEC3",
      "componentType": 5126,
      "count": 37,
      "max": [
        0.14447021484375,
        0.28125,
        0
      ],
      "min": [
        -0.14447021484375,
        -0.28125,
        0
      ],
      "bufferView": 13,
      "byteOffset": 0
    },
    {
      "type": "VEC2",
      "componentType": 5126,
      "count": 37,
      "bufferView": 13,
      "byteOffset": 12
    },
    {
      "type": "VEC3",
      "componentType": 5126,
      "count": 4,
      "max": [
        0.5,
        0.28125,
        0
      ],
      "min": [
        -0.5,
        -0.28125,
        0
      ],
      "bufferView": 14,
      "byteOffset": 0
    },
    {
      "type": "VEC2",
      "componentType": 5126,
      "count": 4,
      "bufferView": 14,
      "byteOffset": 12
    },
    {
      "type": "SCALAR",
      "componentType": 5121,
      "count": 57,
      "bufferView": 15,
      "byteOffset": 0
    },
    {
      "type": "SCALAR",
      "componentType": 5121,
      "count": 69,
      "bufferView": 15,
      "byteOffset": 60
    },
    {
      "type": "SCALAR",
      "componentType": 5121,
      "count": 66,
      "bufferView": 15,
      "byteOffset": 132
    },
    {
      "type": "SCALAR",
      "componentType": 5121,
      "count": 69,
      "bufferView": 15,
      "byteOffset": 200
    },
    {
      "type": "SCALAR",
      "componentType": 5121,
      "count": 6,
      "bufferView": 15,
      "byteOffset": 272
    },
    {
      "type": "SCALAR",
      "componentType": 5121,
      "count": 108,
      "bufferView": 15,
      "byteOffset": 280
    },
    {
      "type": "SCALAR",
      "componentType": 5121,
      "count": 264,
      "bufferView": 15,
      "byteOffset": 388
    },
    {
      "type": "SCALAR",
      "componentType": 5121,
      "count": 60,
      "bufferView": 15,
      "byteOffset": 652
    },
    {
      "type": "SCALAR",
      "componentType": 5121,
      "count": 51,
      "bufferView": 15,
      "byteOffset": 712
    },
    {
      "type": "SCALAR",
      "componentType": 5121,
      "count": 69,
      "bufferView": 15,
      "byteOffset": 764
    },
    {
      "type": "SCALAR",
      "componentType": 5121,
      "count": 27,
      "bufferView": 15,
      "byteOffset": 836
    },
    {
      "type": "SCALAR",
      "componentType": 5121,
      "count": 51,
      "bufferView": 15,
      "byteOffset": 864
    },
    {
      "type": "SCALAR",
      "componentType": 5121,
      "count": 99,
      "bufferView": 15,
      "byteOffset": 916
    },
    {
      "type": "SCALAR",
      "componentType": 5121,
      "count": 105,
      "bufferView": 15,
      "byteOffset": 1016
    },
    {
      "type": "SCALAR",
      "componentType": 5121,
      "count": 6,
      "bufferView": 15,
      "byteOffset": 1124
    }
  ],
  "bufferViews": [
    {
      "buffer": 0,
      "byteOffset": 0,
      "byteLength": 500,
      "byteStride": 20,
      "target": 34962
    },
    {
      "buffer": 0,
      "byteOffset": 500,
      "byteLength": 500,
      "byteStride": 20,
      "target": 34962
    },
    {
      "buffer": 0,
      "byteOffset": 1000,
      "byteLength": 480,
      "byteStride": 20,
      "target": 34962
    },
    {
      "buffer": 0,
      "byteOffset": 1480,
      "byteLength": 520,
      "byteStride": 20,
      "target": 34962
    },
    {
      "buffer": 0,
      "byteOffset": 2000,
      "byteLength": 80,
      "byteStride": 20,
      "target": 34962
    },
    {
      "buffer": 0,
      "byteOffset": 2080,
      "byteLength": 1000,
      "byteStride": 20,
      "target": 34962
    },
    {
      "buffer": 0,
      "byteOffset": 3080,
      "byteLength": 1780,
      "byteStride": 20,
      "target": 34962
    },
    {
      "buffer": 0,
      "byteOffset": 4860,
      "byteLength": 480,
      "byteStride": 20,
      "target": 34962
    },
    {
      "buffer": 0,
      "byteOffset": 5340,
      "byteLength": 380,
      "byteStride": 20,
      "target": 34962
    },
    {
      "buffer": 0,
      "byteOffset": 5720,
      "byteLength": 520,
      "byteStride": 20,
      "target": 34962
    },
    {
      "buffer": 0,
      "byteOffset": 6240,
      "byteLength": 220,
      "byteStride": 20,
      "target": 34962
    },
    {
      "buffer": 0,
      "byteOffset": 6460,
      "byteLength": 380,
      "byteStride": 20,
      "target": 34962
    },
    {
      "buffer": 0,
      "byteOffset": 6840,
      "byteLength": 700,
      "byteStride": 20,
      "target": 34962
    },
    {
      "buffer": 0,
      "byteOffset": 7540,
      "byteLength": 740,
      "byteStride": 20,
      "target": 34962
    },
    {
      "buffer": 0,
      "byteOffset": 8280,
      "byteLength": 80,
      "byteStride": 20,
      "target": 34962
    },
    {
      "buffer": 0,
      "byteOffset": 8360,
      "byteLength": 1132,
      "target": 34963
    }
  ],
  "samplers": [
    {
      "minFilter": 9987,
      "wrapS": 33071,
      "wrapT": 33071
    },
    {
      "minFilter": 9985,
      "wrapS": 33071,
      "wrapT": 33071
    }
  ],
  "textures": [
    {
      "sampler": 0,
      "extensions": {
        "KHR_texture_basisu": {
          "source": 0
        }
      }
    },
    {
      "sampler": 1,
      "extensions": {
        "KHR_texture_basisu": {
          "source": 1
        }
      }
    }
  ],
  "images": [
    {
      "name": "sactx-0-2048x2048-Uncompressed-scene_3_2_atlas-2b37c195",
      "mimeType": "image/ktx2",
      "uri": "sactx-0-2048x2048-Uncompressed-scene_3_2_atlas-2b37c195.ktx2"
    },
    {
      "name": "other",
      "mimeType": "image/ktx2",
      "uri": "other.ktx2"
    }
  ],
  "buffers": [
    {
      "uri": "scene_1.bin",
      "byteLength": 9492
    }
  ],
  "materials": [
    {
      "name": "Sprites-Default",
      "alphaMode": "BLEND",
      "pbrMetallicRoughness": {
        "baseColorTexture": {
          "index": 0
        }
      },
      "extensions": {
        "KHR_materials_unlit": {}
      }
    },
    {
      "name": "Sprites-Default",
      "alphaMode": "BLEND",
      "pbrMetallicRoughness": {
        "baseColorTexture": {
          "index": 1
        }
      },
      "extensions": {
        "KHR_materials_unlit": {}
      }
    }
  ],
  "meshes": [
    {
      "name": "herbe",
      "primitives": [
        {
          "attributes": {
            "POSITION": 0,
            "TEXCOORD_0": 1
          },
          "mode": 4,
          "material": 0,
          "indices": 30
        }
      ]
    },
    {
      "name": "ant",
      "primitives": [
        {
          "attributes": {
            "POSITION": 2,
            "TEXCOORD_0": 3
          },
          "mode": 4,
          "material": 0,
          "indices": 31
        }
      ]
    },
    {
      "name": "fourmiliere",
      "primitives": [
        {
          "attributes": {
            "POSITION": 4,
            "TEXCOORD_0": 5
          },
          "mode": 4,
          "material": 0,
          "indices": 32
        }
      ]
    },
    {
      "name": "fleur",
      "primitives": [
        {
          "attributes": {
            "POSITION": 6,
            "TEXCOORD_0": 7
          },
          "mode": 4,
          "material": 0,
          "indices": 33
        }
      ]
    },
    {
      "name": "particles",
      "primitives": [
        {
          "attributes": {
            "POSITION": 8,
            "TEXCOORD_0": 9
          },
          "mode": 4,
          "material": 1,
          "indices": 34
        }
      ]
    },
    {
      "name": "ballon",
      "primitives": [
        {
          "attributes": {
            "POSITION": 10,
            "TEXCOORD_0": 11
          },
          "mode": 4,
          "material": 0,
          "indices": 35
        }
      ]
    },
    {
      "name": "girafe",
      "primitives": [
        {
          "attributes": {
            "POSITION": 12,
            "TEXCOORD_0": 13
          },
          "mode": 4,
          "material": 0,
          "indices": 36
        }
      ]
    },
    {
      "name": "guirlande",
      "primitives": [
        {
          "attributes": {
            "POSITION": 14,
            "TEXCOORD_0": 15
          },
          "mode": 4,
          "material": 0,
          "indices": 37
        }
      ]
    },
    {
      "name": "arbre",
      "primitives": [
        {
          "attributes": {
            "POSITION": 16,
            "TEXCOORD_0": 17
          },
          "mode": 4,
          "material": 0,
          "indices": 38
        }
      ]
    },
    {
      "name": "erbale",
      "primitives": [
        {
          "attributes": {
            "POSITION": 18,
            "TEXCOORD_0": 19
          },
          "mode": 4,
          "material": 0,
          "indices": 39
        }
      ]
    },
    {
      "name": "liane",
      "primitives": [
        {
          "attributes": {
            "POSITION": 20,
            "TEXCOORD_0": 21
          },
          "mode": 4,
          "material": 0,
          "indices": 40
        }
      ]
    },
    {
      "name": "arbre_2",
      "primitives": [
        {
          "attributes": {
            "POSITION": 22,
            "TEXCOORD_0": 23
          },
          "mode": 4,
          "material": 0,
          "indices": 41
        }
      ]
    },
    {
      "name": "arbre_4",
      "primitives": [
        {
          "attributes": {
            "POSITION": 24,
            "TEXCOORD_0": 25
          },
          "mode": 4,
          "material": 0,
          "indices": 42
        }
      ]
    },
    {
      "name": "arbre_3",
      "primitives": [
        {
          "attributes": {
            "POSITION": 26,
            "TEXCOORD_0": 27
          },
          "mode": 4,
          "material": 0,
          "indices": 43
        }
      ]
    },
    {
      "name": "ciel",
      "primitives": [
        {
          "attributes": {
            "POSITION": 28,
            "TEXCOORD_0": 29
          },
          "mode": 4,
          "material": 0,
          "indices": 44
        }
      ]
    }
  ],
  "nodes": [
    {
      "name": "scene_1",
      "children": [
        1,
        5,
        8,
        11,
        14,
        19,
        22
      ]
    },
    {
      "name": "layer_01",
      "children": [
        2,
        3,
        4
      ]
    },
    {
      "name": "herbe",
      "extras": {
        "renderOrder": 20,
        "renderLayer": "Default"
      },
      "translation": [
        -0.0719375,
        -0.2310625,
        0
      ],
      "mesh": 0
    },
    {
      "name": "ant",
      "extras": {
        "renderOrder": 19,
        "renderLayer": "Default"
      },
      "translation": [
        -0.278125,
        -0.00587499142,
        0
      ],
      "mesh": 1
    },
    {
      "name": "fourmiliere",
      "extras": {
        "renderOrder": 18,
        "renderLayer": "Default"
      },
      "translation": [
        -0.292562485,
        -0.2125,
        0
      ],
      "mesh": 2
    },
    {
      "name": "layer_02",
      "children": [
        6,
        7
      ]
    },
    {
      "name": "fleur",
      "extras": {
        "renderOrder": 16,
        "renderLayer": "Default"
      },
      "translation": [
        0.243187487,
        -0.183,
        0
      ],
      "mesh": 3
    },
    {
      "name": "particles",
      "extras": {
        "renderOrder": 15,
        "renderLayer": "Default"
      },
      "mesh": 4
    },
    {
      "name": "layer_03",
      "children": [
        9,
        10
      ]
    },
    {
      "name": "ballon",
      "extras": {
        "renderOrder": 14,
        "renderLayer": "Default"
      },
      "translation": [
        0.14993751,
        0.0323750079,
        0
      ],
      "mesh": 5
    },
    {
      "name": "girafe",
      "extras": {
        "renderOrder": 13,
        "renderLayer": "Default"
      },
      "translation": [
        0.1546875,
        0,
        0
      ],
      "mesh": 6
    },
    {
      "name": "layer_04",
      "children": [
        12,
        13
      ]
    },
    {
      "name": "guirlande",
      "extras": {
        "renderOrder": 11,
        "renderLayer": "Default"
      },
      "translation": [
        0,
        0.103500009,
        0
      ],
      "mesh": 7
    },
    {
      "name": "arbre",
      "extras": {
        "renderOrder": 10,
        "renderLayer": "Default"
      },
      "translation": [
        0.3966875,
        0,
        0
      ],
      "mesh": 8
    },
    {
      "name": "layer_05",
      "children": [
        15,
        16,
        17,
        18
      ]
    },
    {
      "name": "erbale",
      "extras": {
        "renderOrder": 8,
        "renderLayer": "Default"
      },
      "translation": [
        -0.222750008,
        -0.1615625,
        0
      ],
      "mesh": 9
    },
    {
      "name": "liane",
      "extras": {
        "renderOrder": 7,
        "renderLayer": "Default"
      },
      "translation": [
        -0.233250022,
        0.2629375,
        0
      ],
      "mesh": 10
    },
    {
      "name": "arbre_2",
      "extras": {
        "renderOrder": 6,
        "renderLayer": "Default"
      },
      "translation": [
        -0.38975,
        0.000499993563,
        0
      ],
      "mesh": 11
    },
    {
      "name": "light",
      "extras": {
        "renderOrder": 5,
        "renderLayer": "Default"
      },
      "translation": [
        -0.5,
        0.282,
        0
      ],
      "mesh": 4
    },
    {
      "name": "layer_06",
      "children": [
        20,
        21
      ]
    },
    {
      "name": "arbre_4",
      "extras": {
        "renderOrder": 4,
        "renderLayer": "Default"
      },
      "translation": [
        0.03999999,
        0,
        0
      ],
      "mesh": 12
    },
    {
      "name": "arbre_3",
      "extras": {
        "renderOrder": 3,
        "renderLayer": "Default"
      },
      "translation": [
        0.287125,
        0,
        0
      ],
      "mesh": 13
    },
    {
      "name": "layer_07",
      "children": [
        23
      ]
    },
    {
      "name": "ciel",
      "extras": {
        "renderOrder": 1,
        "renderLayer": "Default"
      },
      "mesh": 14
    }
  ],
  "scenes": [
    {
      "name": "scene_1",
      "nodes": [
        0
      ]
    }
  ],
  "scene": 0,
  "extensionsUsed": [
    "KHR_materials_unlit",
    "KHR_texture_basisu"
  ],
  "extensionsRequired": [
    "KHR_materials_unlit",
    "KHR_texture_basisu"
  ]
}