{
  "asset": {
    "generator": "glTF-Transform v2.1.7",
    "version": "2.0"
  },
  "accessors": [
    {
      "type": "VEC3",
      "componentType": 5126,
      "count": 23,
      "max": [
        0.05912500247359276,
        0.021132569760084152,
        0
      ],
      "min": [
        -0.05912500247359276,
        -0.021132569760084152,
        0
      ],
      "bufferView": 0,
      "byteOffset": 0
    },
    {
      "type": "VEC2",
      "componentType": 5126,
      "count": 23,
      "bufferView": 0,
      "byteOffset": 12
    },
    {
      "type": "VEC3",
      "componentType": 5126,
      "count": 52,
      "max": [
        0.4175625145435333,
        0.07380744069814682,
        0
      ],
      "min": [
        -0.4175625145435333,
        -0.07380744069814682,
        0
      ],
      "bufferView": 1,
      "byteOffset": 0
    },
    {
      "type": "VEC2",
      "componentType": 5126,
      "count": 52,
      "bufferView": 1,
      "byteOffset": 12
    },
    {
      "type": "VEC3",
      "componentType": 5126,
      "count": 213,
      "max": [
        0.250124990940094,
        0.26989251375198364,
        0
      ],
      "min": [
        -0.250124990940094,
        -0.26989251375198364,
        0
      ],
      "bufferView": 2,
      "byteOffset": 0
    },
    {
      "type": "VEC2",
      "componentType": 5126,
      "count": 213,
      "bufferView": 2,
      "byteOffset": 12
    },
    {
      "type": "VEC3",
      "componentType": 5126,
      "count": 13,
      "max": [
        0.22468750178813934,
        0.06187682971358299,
        0
      ],
      "min": [
        -0.22468750178813934,
        -0.06187682971358299,
        0
      ],
      "bufferView": 3,
      "byteOffset": 0
    },
    {
      "type": "VEC2",
      "componentType": 5126,
      "count": 13,
      "bufferView": 3,
      "byteOffset": 12
    },
    {
      "type": "VEC3",
      "componentType": 5126,
      "count": 5,
      "max": [
        0.2541249990463257,
        0.015882812440395355,
        0
      ],
      "min": [
        -0.2541249990463257,
        -0.015882812440395355,
        0
      ],
      "bufferView": 4,
      "byteOffset": 0
    },
    {
      "type": "VEC2",
      "componentType": 5126,
      "count": 5,
      "bufferView": 4,
      "byteOffset": 12
    },
    {
      "type": "VEC3",
      "componentType": 5126,
      "count": 50,
      "max": [
        0.3141250014305115,
        0.10644665360450745,
        0
      ],
      "min": [
        -0.3141250014305115,
        -0.10644665360450745,
        0
      ],
      "bufferView": 5,
      "byteOffset": 0
    },
    {
      "type": "VEC2",
      "componentType": 5126,
      "count": 50,
      "bufferView": 5,
      "byteOffset": 12
    },
    {
      "type": "VEC3",
      "componentType": 5126,
      "count": 33,
      "max": [
        0.09758304059505463,
        0.05393749848008156,
        0
      ],
      "min": [
        -0.09758304059505463,
        -0.05393749848008156,
        0
      ],
      "bufferView": 6,
      "byteOffset": 0
    },
    {
      "type": "VEC2",
      "componentType": 5126,
      "count": 33,
      "bufferView": 6,
      "byteOffset": 12
    },
    {
      "type": "VEC3",
      "componentType": 5126,
      "count": 61,
      "max": [
        0.3094683587551117,
        0.11937499791383743,
        0
      ],
      "min": [
        -0.3094683587551117,
        -0.11937499791383743,
        0
      ],
      "bufferView": 7,
      "byteOffset": 0
    },
    {
      "type": "VEC2",
      "componentType": 5126,
      "count": 61,
      "bufferView": 7,
      "byteOffset": 12
    },
    {
      "type": "VEC3",
      "componentType": 5126,
      "count": 112,
      "max": [
        0.04290771484375,
        0.043937500566244125,
        0
      ],
      "min": [
        -0.04290771484375,
        -0.043937500566244125,
        0
      ],
      "bufferView": 8,
      "byteOffset": 0
    },
    {
      "type": "VEC2",
      "componentType": 5126,
      "count": 112,
      "bufferView": 8,
      "byteOffset": 12
    },
    {
      "type": "VEC3",
      "componentType": 5126,
      "count": 16,
      "max": [
        0.3156610131263733,
        0.07274999469518661,
        0
      ],
      "min": [
        -0.3156610131263733,
        -0.07274999469518661,
        0
      ],
      "bufferView": 9,
      "byteOffset": 0
    },
    {
      "type": "VEC2",
      "componentType": 5126,
      "count": 16,
      "bufferView": 9,
      "byteOffset": 12
    },
    {
      "type": "VEC3",
      "componentType": 5126,
      "count": 18,
      "max": [
        0.5019999742507935,
        0.09412499517202377,
        0
      ],
      "min": [
        -0.5019999742507935,
        -0.09412499517202377,
        0
      ],
      "bufferView": 10,
      "byteOffset": 0
    },
    {
      "type": "VEC2",
      "componentType": 5126,
      "count": 18,
      "bufferView": 10,
      "byteOffset": 12
    },
    {
      "type": "VEC3",
      "componentType": 5126,
      "count": 36,
      "max": [
        0.1864374876022339,
        0.13764330744743347,
        0
      ],
      "min": [
        -0.1864374876022339,
        -0.13764330744743347,
        0
      ],
      "bufferView": 11,
      "byteOffset": 0
    },
    {
      "type": "VEC2",
      "componentType": 5126,
      "count": 36,
      "bufferView": 11,
      "byteOffset": 12
    },
    {
      "type": "VEC3",
      "componentType": 5126,
      "count": 64,
      "max": [
        0.1743125021457672,
        0.17603155970573425,
        0
      ],
      "min": [
        -0.1743125021457672,
        -0.17603155970573425,
        0
      ],
      "bufferView": 12,
      "byteOffset": 0
    },
    {
      "type": "VEC2",
      "componentType": 5126,
      "count": 64,
      "bufferView": 12,
      "byteOffset": 12
    },
    {
      "type": "VEC3",
      "componentType": 5126,
      "count": 57,
      "max": [
        0.20362499356269836,
        0.28101348876953125,
        0
      ],
      "min": [
        -0.20362499356269836,
        -0.28101348876953125,
        0
      ],
      "bufferView": 13,
      "byteOffset": 0
    },
    {
      "type": "VEC2",
      "componentType": 5126,
      "count": 57,
      "bufferView": 13,
      "byteOffset": 12
    },
    {
      "type": "VEC3",
      "componentType": 5126,
      "count": 26,
      "max": [
        0.08109679818153381,
        0.17668749392032623,
        0
      ],
      "min": [
        -0.08109679818153381,
        -0.17668749392032623,
        0
      ],
      "bufferView": 14,
      "byteOffset": 0
    },
    {
      "type": "VEC2",
      "componentType": 5126,
      "count": 26,
      "bufferView": 14,
      "byteOffset": 12
    },
    {
      "type": "VEC3",
      "componentType": 5126,
      "count": 4,
      "max": [
        0.5,
        0.28125,
        0
      ],
      "min": [
        -0.5,
        -0.28125,
        0
      ],
      "bufferView": 15,
      "byteOffset": 0
    },
    {
      "type": "VEC2",
      "componentType": 5126,
      "count": 4,
      "bufferView": 15,
      "byteOffset": 12
    },
    {
      "type": "SCALAR",
      "componentType": 5121,
      "count": 63,
      "bufferView": 16,
      "byteOffset": 0
    },
    {
      "type": "SCALAR",
      "componentType": 5121,
      "count": 141,
      "bufferView": 16,
      "byteOffset": 64
    },
    {
      "type": "SCALAR",
      "componentType": 5121,
      "count": 639,
      "bufferView": 16,
      "byteOffset": 208
    },
    {
      "type": "SCALAR",
      "componentType": 5121,
      "count": 36,
      "bufferView": 16,
      "byteOffset": 848
    },
    {
      "type": "SCALAR",
      "componentType": 5121,
      "count": 9,
      "bufferView": 16,
      "byteOffset": 884
    },
    {
      "type": "SCALAR",
      "componentType": 5121,
      "count": 120,
      "bufferView": 16,
      "byteOffset": 896
    },
    {
      "type": "SCALAR",
      "componentType": 5121,
      "count": 102,
      "bufferView": 16,
      "byteOffset": 1016
    },
    {
      "type": "SCALAR",
      "componentType": 5121,
      "count": 171,
      "bufferView": 16,
      "byteOffset": 1120
    },
    {
      "type": "SCALAR",
      "componentType": 5121,
      "count": 360,
      "bufferView": 16,
      "byteOffset": 1292
    },
    {
      "type": "SCALAR",
      "componentType": 5121,
      "count": 42,
      "bufferView": 16,
      "byteOffset": 1652
    },
    {
      "type": "SCALAR",
      "componentType": 5121,
      "count": 42,
      "bufferView": 16,
      "byteOffset": 1696
    },
    {
      "type": "SCALAR",
      "componentType": 5121,
      "count": 96,
      "bufferView": 16,
      "byteOffset": 1740
    },
    {
      "type": "SCALAR",
      "componentType": 5121,
      "count": 186,
      "bufferView": 16,
      "byteOffset": 1836
    },
    {
      "type": "SCALAR",
      "componentType": 5121,
      "count": 165,
      "bufferView": 16,
      "byteOffset": 2024
    },
    {
      "type": "SCALAR",
      "componentType": 5121,
      "count": 72,
      "bufferView": 16,
      "byteOffset": 2192
    },
    {
      "type": "SCALAR",
      "componentType": 5121,
      "count": 6,
      "bufferView": 16,
      "byteOffset": 2264
    }
  ],
  "bufferViews": [
    {
      "buffer": 0,
      "byteOffset": 0,
      "byteLength": 460,
      "byteStride": 20,
      "target": 34962
    },
    {
      "buffer": 0,
      "byteOffset": 460,
      "byteLength": 1040,
      "byteStride": 20,
      "target": 34962
    },
    {
      "buffer": 0,
      "byteOffset": 1500,
      "byteLength": 4260,
      "byteStride": 20,
      "target": 34962
    },
    {
      "buffer": 0,
      "byteOffset": 5760,
      "byteLength": 260,
      "byteStride": 20,
      "target": 34962
    },
    {
      "buffer": 0,
      "byteOffset": 6020,
      "byteLength": 100,
      "byteStride": 20,
      "target": 34962
    },
    {
      "buffer": 0,
      "byteOffset": 6120,
      "byteLength": 1000,
      "byteStride": 20,
      "target": 34962
    },
    {
      "buffer": 0,
      "byteOffset": 7120,
      "byteLength": 660,
      "byteStride": 20,
      "target": 34962
    },
    {
      "buffer": 0,
      "byteOffset": 7780,
      "byteLength": 1220,
      "byteStride": 20,
      "target": 34962
    },
    {
      "buffer": 0,
      "byteOffset": 9000,
      "byteLength": 2240,
      "byteStride": 20,
      "target": 34962
    },
    {
      "buffer": 0,
      "byteOffset": 11240,
      "byteLength": 320,
      "byteStride": 20,
      "target": 34962
    },
    {
      "buffer": 0,
      "byteOffset": 11560,
      "byteLength": 360,
      "byteStride": 20,
      "target": 34962
    },
    {
      "buffer": 0,
      "byteOffset": 11920,
      "byteLength": 720,
      "byteStride": 20,
      "target": 34962
    },
    {
      "buffer": 0,
      "byteOffset": 12640,
      "byteLength": 1280,
      "byteStride": 20,
      "target": 34962
    },
    {
      "buffer": 0,
      "byteOffset": 13920,
      "byteLength": 1140,
      "byteStride": 20,
      "target": 34962
    },
    {
      "buffer": 0,
      "byteOffset": 15060,
      "byteLength": 520,
      "byteStride": 20,
      "target": 34962
    },
    {
      "buffer": 0,
      "byteOffset": 15580,
      "byteLength": 80,
      "byteStride": 20,
      "target": 34962
    },
    {
      "buffer": 0,
      "byteOffset": 15660,
      "byteLength": 2272,
      "target": 34963
    }
  ],
  "samplers": [
    {
      "minFilter": 9987,
      "wrapS": 33071,
      "wrapT": 33071
    }
  ],
  "textures": [
    {
      "sampler": 0,
      "extensions": {
        "KHR_texture_basisu": {
          "source": 0
        }
      }
    }
  ],
  "images": [
    {
      "name": "sactx-0-2048x2048-Uncompressed-scene_4_6_atlas-1eecc1af",
      "mimeType": "image/ktx2",
      "uri": "sactx-0-2048x2048-Uncompressed-scene_4_6_atlas-1eecc1af.ktx2"
    }
  ],
  "buffers": [
    {
      "uri": "scene_5.bin",
      "byteLength": 17932
    }
  ],
  "materials": [
    {
      "name": "Sprites-Default",
      "alphaMode": "BLEND",
      "pbrMetallicRoughness": {
        "baseColorTexture": {
          "index": 0
        }
      },
      "extensions": {
        "KHR_materials_unlit": {}
      }
    }
  ],
  "meshes": [
    {
      "name": "bosse_1",
      "primitives": [
        {
          "attributes": {
            "POSITION": 0,
            "TEXCOORD_0": 1
          },
          "mode": 4,
          "material": 0,
          "indices": 32
        }
      ]
    },
    {
      "name": "fleur_blanche",
      "primitives": [
        {
          "attributes": {
            "POSITION": 2,
            "TEXCOORD_0": 3
          },
          "mode": 4,
          "material": 0,
          "indices": 33
        }
      ]
    },
    {
      "name": "sheep",
      "primitives": [
        {
          "attributes": {
            "POSITION": 4,
            "TEXCOORD_0": 5
          },
          "mode": 4,
          "material": 0,
          "indices": 34
        }
      ]
    },
    {
      "name": "bosse_2",
      "primitives": [
        {
          "attributes": {
            "POSITION": 6,
            "TEXCOORD_0": 7
          },
          "mode": 4,
          "material": 0,
          "indices": 35
        }
      ]
    },
    {
      "name": "eau",
      "primitives": [
        {
          "attributes": {
            "POSITION": 8,
            "TEXCOORD_0": 9
          },
          "mode": 4,
          "material": 0,
          "indices": 36
        }
      ]
    },
    {
      "name": "fleur_blanche_2",
      "primitives": [
        {
          "attributes": {
            "POSITION": 10,
            "TEXCOORD_0": 11
          },
          "mode": 4,
          "material": 0,
          "indices": 37
        }
      ]
    },
    {
      "name": "bosse_3",
      "primitives": [
        {
          "attributes": {
            "POSITION": 12,
            "TEXCOORD_0": 13
          },
          "mode": 4,
          "material": 0,
          "indices": 38
        }
      ]
    },
    {
      "name": "feuille_verte",
      "primitives": [
        {
          "attributes": {
            "POSITION": 14,
            "TEXCOORD_0": 15
          },
          "mode": 4,
          "material": 0,
          "indices": 39
        }
      ]
    },
    {
      "name": "feuille",
      "primitives": [
        {
          "attributes": {
            "POSITION": 16,
            "TEXCOORD_0": 17
          },
          "mode": 4,
          "material": 0,
          "indices": 40
        }
      ]
    },
    {
      "name": "bosse_4",
      "primitives": [
        {
          "attributes": {
            "POSITION": 18,
            "TEXCOORD_0": 19
          },
          "mode": 4,
          "material": 0,
          "indices": 41
        }
      ]
    },
    {
      "name": "plaine_1",
      "primitives": [
        {
          "attributes": {
            "POSITION": 20,
            "TEXCOORD_0": 21
          },
          "mode": 4,
          "material": 0,
          "indices": 42
        }
      ]
    },
    {
      "name": "montagne_1",
      "primitives": [
        {
          "attributes": {
            "POSITION": 22,
            "TEXCOORD_0": 23
          },
          "mode": 4,
          "material": 0,
          "indices": 43
        }
      ]
    },
    {
      "name": "montagne_2",
      "primitives": [
        {
          "attributes": {
            "POSITION": 24,
            "TEXCOORD_0": 25
          },
          "mode": 4,
          "material": 0,
          "indices": 44
        }
      ]
    },
    {
      "name": "montagne_3",
      "primitives": [
        {
          "attributes": {
            "POSITION": 26,
            "TEXCOORD_0": 27
          },
          "mode": 4,
          "material": 0,
          "indices": 45
        }
      ]
    },
    {
      "name": "montagne4",
      "primitives": [
        {
          "attributes": {
            "POSITION": 28,
            "TEXCOORD_0": 29
          },
          "mode": 4,
          "material": 0,
          "indices": 46
        }
      ]
    },
    {
      "name": "ciel",
      "primitives": [
        {
          "attributes": {
            "POSITION": 30,
            "TEXCOORD_0": 31
          },
          "mode": 4,
          "material": 0,
          "indices": 47
        }
      ]
    }
  ],
  "nodes": [
    {
      "name": "scene_5",
      "children": [
        1,
        4,
        7,
        9,
        14,
        17,
        22
      ]
    },
    {
      "name": "layer_01",
      "children": [
        2,
        3
      ]
    },
    {
      "name": "bosse_1",
      "extras": {
        "renderOrder": 22,
        "renderLayer": "Default"
      },
      "translation": [
        0.176,
        -0.260125,
        0
      ],
      "mesh": 0
    },
    {
      "name": "fleur_blanche",
      "extras": {
        "renderOrder": 21,
        "renderLayer": "Default"
      },
      "translation": [
        0.0584374964,
        -0.207500011,
        0
      ],
      "mesh": 1
    },
    {
      "name": "layer_02",
      "children": [
        5,
        6
      ]
    },
    {
      "name": "sheep",
      "extras": {
        "renderOrder": 19,
        "renderLayer": "Default"
      },
      "translation": [
        -0.227,
        -0.0114375055,
        0
      ],
      "mesh": 2
    },
    {
      "name": "bosse_2",
      "extras": {
        "renderOrder": 18,
        "renderLayer": "Default"
      },
      "translation": [
        -0.186937511,
        -0.2195625,
        0
      ],
      "mesh": 3
    },
    {
      "name": "layer_03",
      "children": [
        8
      ]
    },
    {
      "name": "eau",
      "extras": {
        "renderOrder": 16,
        "renderLayer": "Default"
      },
      "translation": [
        0.245875,
        -0.265375,
        0
      ],
      "mesh": 4
    },
    {
      "name": "layer_04",
      "children": [
        10,
        11,
        12,
        13
      ]
    },
    {
      "name": "fleur_blanche_2",
      "extras": {
        "renderOrder": 14,
        "renderLayer": "Default"
      },
      "translation": [
        -0.185875,
        -0.066625,
        0
      ],
      "mesh": 5
    },
    {
      "name": "bosse_3",
      "extras": {
        "renderOrder": 13,
        "renderLayer": "Default"
      },
      "translation": [
        0.4025625,
        -0.2273125,
        0
      ],
      "mesh": 6
    },
    {
      "name": "feuille_verte",
      "extras": {
        "renderOrder": 12,
        "renderLayer": "Default"
      },
      "translation": [
        -0.180125,
        -0.16187501,
        0
      ],
      "mesh": 7
    },
    {
      "name": "feuille",
      "extras": {
        "renderOrder": 11,
        "renderLayer": "Default"
      },
      "translation": [
        -0.457125,
        -0.2373125,
        0
      ],
      "mesh": 8
    },
    {
      "name": "layer_05",
      "children": [
        15,
        16
      ]
    },
    {
      "name": "bosse_4",
      "extras": {
        "renderOrder": 9,
        "renderLayer": "Default"
      },
      "translation": [
        0.0961875,
        -0.2085,
        0
      ],
      "mesh": 9
    },
    {
      "name": "plaine_1",
      "extras": {
        "renderOrder": 8,
        "renderLayer": "Default"
      },
      "translation": [
        0,
        -0.187125,
        0
      ],
      "mesh": 10
    },
    {
      "name": "layer_06",
      "children": [
        18,
        19,
        20,
        21
      ]
    },
    {
      "name": "montagne_1",
      "extras": {
        "renderOrder": 6,
        "renderLayer": "Default"
      },
      "translation": [
        0.3135625,
        -0.064624995,
        0
      ],
      "mesh": 11
    },
    {
      "name": "montagne_2",
      "extras": {
        "renderOrder": 5,
        "renderLayer": "Default"
      },
      "translation": [
        0.05493751,
        -0.0400000066,
        0
      ],
      "mesh": 12
    },
    {
      "name": "montagne_3",
      "extras": {
        "renderOrder": 4,
        "renderLayer": "Default"
      },
      "translation": [
        -0.183499992,
        0.000375002623,
        0
      ],
      "mesh": 13
    },
    {
      "name": "montagne4",
      "extras": {
        "renderOrder": 3,
        "renderLayer": "Default"
      },
      "translation": [
        -0.4190625,
        -0.055687502,
        0
      ],
      "mesh": 14
    },
    {
      "name": "layer_07",
      "children": [
        23
      ]
    },
    {
      "name": "ciel",
      "extras": {
        "renderOrder": 1,
        "renderLayer": "Default"
      },
      "mesh": 15
    }
  ],
  "scenes": [
    {
      "name": "scene_5",
      "nodes": [
        0
      ]
    }
  ],
  "scene": 0,
  "extensionsUsed": [
    "KHR_materials_unlit",
    "KHR_texture_basisu"
  ],
  "extensionsRequired": [
    "KHR_materials_unlit",
    "KHR_texture_basisu"
  ]
}