{
  "asset": {
    "generator": "glTF-Transform v2.1.7",
    "version": "2.0"
  },
  "accessors": [
    {
      "type": "VEC3",
      "componentType": 5126,
      "count": 62,
      "max": [
        0.1535000056028366,
        0.07914843410253525,
        0
      ],
      "min": [
        -0.1535000056028366,
        -0.07914843410253525,
        0
      ],
      "bufferView": 0,
      "byteOffset": 0
    },
    {
      "type": "VEC2",
      "componentType": 5126,
      "count": 62,
      "bufferView": 0,
      "byteOffset": 12
    },
    {
      "type": "VEC3",
      "componentType": 5126,
      "count": 39,
      "max": [
        0.5,
        0.28125,
        0
      ],
      "min": [
        -0.5,
        -0.28125,
        0
      ],
      "bufferView": 1,
      "byteOffset": 0
    },
    {
      "type": "VEC2",
      "componentType": 5126,
      "count": 39,
      "bufferView": 1,
      "byteOffset": 12
    },
    {
      "type": "VEC3",
      "componentType": 5126,
      "count": 183,
      "max": [
        0.13606250286102295,
        0.1705361157655716,
        0
      ],
      "min": [
        -0.13606250286102295,
        -0.1705361157655716,
        0
      ],
      "bufferView": 2,
      "byteOffset": 0
    },
    {
      "type": "VEC2",
      "componentType": 5126,
      "count": 183,
      "bufferView": 2,
      "byteOffset": 12
    },
    {
      "type": "VEC3",
      "componentType": 5126,
      "count": 22,
      "max": [
        0.15341563522815704,
        0.07281249761581421,
        0
      ],
      "min": [
        -0.15341563522815704,
        -0.07281249761581421,
        0
      ],
      "bufferView": 3,
      "byteOffset": 0
    },
    {
      "type": "VEC2",
      "componentType": 5126,
      "count": 22,
      "bufferView": 3,
      "byteOffset": 12
    },
    {
      "type": "VEC3",
      "componentType": 5126,
      "count": 4,
      "max": [
        0.06400000303983688,
        0.06400000303983688,
        0
      ],
      "min": [
        -0.06400000303983688,
        -0.06400000303983688,
        0
      ],
      "bufferView": 4,
      "byteOffset": 0
    },
    {
      "type": "VEC2",
      "componentType": 5126,
      "count": 4,
      "bufferView": 4,
      "byteOffset": 12
    },
    {
      "type": "VEC3",
      "componentType": 5126,
      "count": 42,
      "max": [
        0.5,
        0.1484375,
        0
      ],
      "min": [
        -0.5,
        -0.1484375,
        0
      ],
      "bufferView": 5,
      "byteOffset": 0
    },
    {
      "type": "VEC2",
      "componentType": 5126,
      "count": 42,
      "bufferView": 5,
      "byteOffset": 12
    },
    {
      "type": "VEC3",
      "componentType": 5126,
      "count": 30,
      "max": [
        0.07343750447034836,
        0.05895080789923668,
        0
      ],
      "min": [
        -0.07343750447034836,
        -0.05895080789923668,
        0
      ],
      "bufferView": 6,
      "byteOffset": 0
    },
    {
      "type": "VEC2",
      "componentType": 5126,
      "count": 30,
      "bufferView": 6,
      "byteOffset": 12
    },
    {
      "type": "VEC3",
      "componentType": 5126,
      "count": 37,
      "max": [
        0.5004210472106934,
        0.148562490940094,
        0
      ],
      "min": [
        -0.5004210472106934,
        -0.148562490940094,
        0
      ],
      "bufferView": 7,
      "byteOffset": 0
    },
    {
      "type": "VEC2",
      "componentType": 5126,
      "count": 37,
      "bufferView": 7,
      "byteOffset": 12
    },
    {
      "type": "VEC3",
      "componentType": 5126,
      "count": 43,
      "max": [
        0.08481249958276749,
        0.09027858078479767,
        0
      ],
      "min": [
        -0.08481249958276749,
        -0.09027858078479767,
        0
      ],
      "bufferView": 8,
      "byteOffset": 0
    },
    {
      "type": "VEC2",
      "componentType": 5126,
      "count": 43,
      "bufferView": 8,
      "byteOffset": 12
    },
    {
      "type": "VEC3",
      "componentType": 5126,
      "count": 34,
      "max": [
        0.23081250488758087,
        0.28137141466140747,
        0
      ],
      "min": [
        -0.23081250488758087,
        -0.28137141466140747,
        0
      ],
      "bufferView": 9,
      "byteOffset": 0
    },
    {
      "type": "VEC2",
      "componentType": 5126,
      "count": 34,
      "bufferView": 9,
      "byteOffset": 12
    },
    {
      "type": "VEC3",
      "componentType": 5126,
      "count": 26,
      "max": [
        0.10052490234375,
        0.28125,
        0
      ],
      "min": [
        -0.10052490234375,
        -0.28125,
        0
      ],
      "bufferView": 10,
      "byteOffset": 0
    },
    {
      "type": "VEC2",
      "componentType": 5126,
      "count": 26,
      "bufferView": 10,
      "byteOffset": 12
    },
    {
      "type": "VEC3",
      "componentType": 5126,
      "count": 26,
      "max": [
        0.474057137966156,
        0.06481249630451202,
        0
      ],
      "min": [
        -0.474057137966156,
        -0.06481249630451202,
        0
      ],
      "bufferView": 11,
      "byteOffset": 0
    },
    {
      "type": "VEC2",
      "componentType": 5126,
      "count": 26,
      "bufferView": 11,
      "byteOffset": 12
    },
    {
      "type": "VEC3",
      "componentType": 5126,
      "count": 17,
      "max": [
        0.06317138671875,
        0.28125,
        0
      ],
      "min": [
        -0.06317138671875,
        -0.28125,
        0
      ],
      "bufferView": 12,
      "byteOffset": 0
    },
    {
      "type": "VEC2",
      "componentType": 5126,
      "count": 17,
      "bufferView": 12,
      "byteOffset": 12
    },
    {
      "type": "VEC3",
      "componentType": 5126,
      "count": 20,
      "max": [
        0.12350000441074371,
        0.17811831831932068,
        0
      ],
      "min": [
        -0.12350000441074371,
        -0.17811831831932068,
        0
      ],
      "bufferView": 13,
      "byteOffset": 0
    },
    {
      "type": "VEC2",
      "componentType": 5126,
      "count": 20,
      "bufferView": 13,
      "byteOffset": 12
    },
    {
      "type": "VEC3",
      "componentType": 5126,
      "count": 24,
      "max": [
        0.24062499403953552,
        0.10715331882238388,
        0
      ],
      "min": [
        -0.24062499403953552,
        -0.10715331882238388,
        0
      ],
      "bufferView": 14,
      "byteOffset": 0
    },
    {
      "type": "VEC2",
      "componentType": 5126,
      "count": 24,
      "bufferView": 14,
      "byteOffset": 12
    },
    {
      "type": "VEC3",
      "componentType": 5126,
      "count": 4,
      "max": [
        0.5,
        0.28125,
        0
      ],
      "min": [
        -0.5,
        -0.28125,
        0
      ],
      "bufferView": 15,
      "byteOffset": 0
    },
    {
      "type": "VEC2",
      "componentType": 5126,
      "count": 4,
      "bufferView": 15,
      "byteOffset": 12
    },
    {
      "type": "SCALAR",
      "componentType": 5121,
      "count": 195,
      "bufferView": 16,
      "byteOffset": 0
    },
    {
      "type": "SCALAR",
      "componentType": 5121,
      "count": 93,
      "bufferView": 16,
      "byteOffset": 196
    },
    {
      "type": "SCALAR",
      "componentType": 5121,
      "count": 543,
      "bufferView": 16,
      "byteOffset": 292
    },
    {
      "type": "SCALAR",
      "componentType": 5121,
      "count": 60,
      "bufferView": 16,
      "byteOffset": 836
    },
    {
      "type": "SCALAR",
      "componentType": 5121,
      "count": 6,
      "bufferView": 16,
      "byteOffset": 896
    },
    {
      "type": "SCALAR",
      "componentType": 5121,
      "count": 102,
      "bufferView": 16,
      "byteOffset": 904
    },
    {
      "type": "SCALAR",
      "componentType": 5121,
      "count": 84,
      "bufferView": 16,
      "byteOffset": 1008
    },
    {
      "type": "SCALAR",
      "componentType": 5121,
      "count": 108,
      "bufferView": 16,
      "byteOffset": 1092
    },
    {
      "type": "SCALAR",
      "componentType": 5121,
      "count": 129,
      "bufferView": 16,
      "byteOffset": 1200
    },
    {
      "type": "SCALAR",
      "componentType": 5121,
      "count": 96,
      "bufferView": 16,
      "byteOffset": 1332
    },
    {
      "type": "SCALAR",
      "componentType": 5121,
      "count": 72,
      "bufferView": 16,
      "byteOffset": 1428
    },
    {
      "type": "SCALAR",
      "componentType": 5121,
      "count": 60,
      "bufferView": 16,
      "byteOffset": 1500
    },
    {
      "type": "SCALAR",
      "componentType": 5121,
      "count": 45,
      "bufferView": 16,
      "byteOffset": 1560
    },
    {
      "type": "SCALAR",
      "componentType": 5121,
      "count": 54,
      "bufferView": 16,
      "byteOffset": 1608
    },
    {
      "type": "SCALAR",
      "componentType": 5121,
      "count": 60,
      "bufferView": 16,
      "byteOffset": 1664
    },
    {
      "type": "SCALAR",
      "componentType": 5121,
      "count": 6,
      "bufferView": 16,
      "byteOffset": 1724
    }
  ],
  "bufferViews": [
    {
      "buffer": 0,
      "byteOffset": 0,
      "byteLength": 1240,
      "byteStride": 20,
      "target": 34962
    },
    {
      "buffer": 0,
      "byteOffset": 1240,
      "byteLength": 780,
      "byteStride": 20,
      "target": 34962
    },
    {
      "buffer": 0,
      "byteOffset": 2020,
      "byteLength": 3660,
      "byteStride": 20,
      "target": 34962
    },
    {
      "buffer": 0,
      "byteOffset": 5680,
      "byteLength": 440,
      "byteStride": 20,
      "target": 34962
    },
    {
      "buffer": 0,
      "byteOffset": 6120,
      "byteLength": 80,
      "byteStride": 20,
      "target": 34962
    },
    {
      "buffer": 0,
      "byteOffset": 6200,
      "byteLength": 840,
      "byteStride": 20,
      "target": 34962
    },
    {
      "buffer": 0,
      "byteOffset": 7040,
      "byteLength": 600,
      "byteStride": 20,
      "target": 34962
    },
    {
      "buffer": 0,
      "byteOffset": 7640,
      "byteLength": 740,
      "byteStride": 20,
      "target": 34962
    },
    {
      "buffer": 0,
      "byteOffset": 8380,
      "byteLength": 860,
      "byteStride": 20,
      "target": 34962
    },
    {
      "buffer": 0,
      "byteOffset": 9240,
      "byteLength": 680,
      "byteStride": 20,
      "target": 34962
    },
    {
      "buffer": 0,
      "byteOffset": 9920,
      "byteLength": 520,
      "byteStride": 20,
      "target": 34962
    },
    {
      "buffer": 0,
      "byteOffset": 10440,
      "byteLength": 520,
      "byteStride": 20,
      "target": 34962
    },
    {
      "buffer": 0,
      "byteOffset": 10960,
      "byteLength": 340,
      "byteStride": 20,
      "target": 34962
    },
    {
      "buffer": 0,
      "byteOffset": 11300,
      "byteLength": 400,
      "byteStride": 20,
      "target": 34962
    },
    {
      "buffer": 0,
      "byteOffset": 11700,
      "byteLength": 480,
      "byteStride": 20,
      "target": 34962
    },
    {
      "buffer": 0,
      "byteOffset": 12180,
      "byteLength": 80,
      "byteStride": 20,
      "target": 34962
    },
    {
      "buffer": 0,
      "byteOffset": 12260,
      "byteLength": 1732,
      "target": 34963
    }
  ],
  "samplers": [
    {
      "minFilter": 9987,
      "wrapS": 33071,
      "wrapT": 33071
    },
    {
      "minFilter": 9985,
      "wrapS": 33071,
      "wrapT": 33071
    }
  ],
  "textures": [
    {
      "sampler": 0,
      "extensions": {
        "KHR_texture_basisu": {
          "source": 0
        }
      }
    },
    {
      "sampler": 1,
      "extensions": {
        "KHR_texture_basisu": {
          "source": 1
        }
      }
    }
  ],
  "images": [
    {
      "name": "sactx-0-2048x2048-Uncompressed-scene_3_6_atlas-6a4dd27f",
      "mimeType": "image/ktx2",
      "uri": "sactx-0-2048x2048-Uncompressed-scene_3_6_atlas-6a4dd27f.ktx2"
    },
    {
      "name": "user_avatar",
      "mimeType": "image/ktx2",
      "uri": "user_avatar.ktx2"
    }
  ],
  "buffers": [
    {
      "uri": "scene_5.bin",
      "byteLength": 13992
    }
  ],
  "materials": [
    {
      "name": "Sprites-Default",
      "alphaMode": "BLEND",
      "pbrMetallicRoughness": {
        "baseColorTexture": {
          "index": 0
        }
      },
      "extensions": {
        "KHR_materials_unlit": {}
      }
    },
    {
      "name": "Sprites-Default",
      "alphaMode": "BLEND",
      "pbrMetallicRoughness": {
        "baseColorTexture": {
          "index": 1
        }
      },
      "extensions": {
        "KHR_materials_unlit": {}
      }
    }
  ],
  "meshes": [
    {
      "name": "fleur_haute",
      "primitives": [
        {
          "attributes": {
            "POSITION": 0,
            "TEXCOORD_0": 1
          },
          "mode": 4,
          "material": 0,
          "indices": 32
        }
      ]
    },
    {
      "name": "fleur_blanche",
      "primitives": [
        {
          "attributes": {
            "POSITION": 2,
            "TEXCOORD_0": 3
          },
          "mode": 4,
          "material": 0,
          "indices": 33
        }
      ]
    },
    {
      "name": "owl",
      "primitives": [
        {
          "attributes": {
            "POSITION": 4,
            "TEXCOORD_0": 5
          },
          "mode": 4,
          "material": 0,
          "indices": 34
        }
      ]
    },
    {
      "name": "branche",
      "primitives": [
        {
          "attributes": {
            "POSITION": 6,
            "TEXCOORD_0": 7
          },
          "mode": 4,
          "material": 0,
          "indices": 35
        }
      ]
    },
    {
      "name": "particles",
      "primitives": [
        {
          "attributes": {
            "POSITION": 8,
            "TEXCOORD_0": 9
          },
          "mode": 4,
          "material": 1,
          "indices": 36
        }
      ]
    },
    {
      "name": "ballon",
      "primitives": [
        {
          "attributes": {
            "POSITION": 10,
            "TEXCOORD_0": 11
          },
          "mode": 4,
          "material": 0,
          "indices": 37
        }
      ]
    },
    {
      "name": "buissons_bas",
      "primitives": [
        {
          "attributes": {
            "POSITION": 12,
            "TEXCOORD_0": 13
          },
          "mode": 4,
          "material": 0,
          "indices": 38
        }
      ]
    },
    {
      "name": "guirlande",
      "primitives": [
        {
          "attributes": {
            "POSITION": 14,
            "TEXCOORD_0": 15
          },
          "mode": 4,
          "material": 0,
          "indices": 39
        }
      ]
    },
    {
      "name": "ant",
      "primitives": [
        {
          "attributes": {
            "POSITION": 16,
            "TEXCOORD_0": 17
          },
          "mode": 4,
          "material": 0,
          "indices": 40
        }
      ]
    },
    {
      "name": "arbre_droit",
      "primitives": [
        {
          "attributes": {
            "POSITION": 18,
            "TEXCOORD_0": 19
          },
          "mode": 4,
          "material": 0,
          "indices": 41
        }
      ]
    },
    {
      "name": "arbre_gauche",
      "primitives": [
        {
          "attributes": {
            "POSITION": 20,
            "TEXCOORD_0": 21
          },
          "mode": 4,
          "material": 0,
          "indices": 42
        }
      ]
    },
    {
      "name": "arbre_feuillage",
      "primitives": [
        {
          "attributes": {
            "POSITION": 22,
            "TEXCOORD_0": 23
          },
          "mode": 4,
          "material": 0,
          "indices": 43
        }
      ]
    },
    {
      "name": "arbre_3",
      "primitives": [
        {
          "attributes": {
            "POSITION": 24,
            "TEXCOORD_0": 25
          },
          "mode": 4,
          "material": 0,
          "indices": 44
        }
      ]
    },
    {
      "name": "arbre_4",
      "primitives": [
        {
          "attributes": {
            "POSITION": 26,
            "TEXCOORD_0": 27
          },
          "mode": 4,
          "material": 0,
          "indices": 45
        }
      ]
    },
    {
      "name": "baniere",
      "primitives": [
        {
          "attributes": {
            "POSITION": 28,
            "TEXCOORD_0": 29
          },
          "mode": 4,
          "material": 0,
          "indices": 46
        }
      ]
    },
    {
      "name": "ciel",
      "primitives": [
        {
          "attributes": {
            "POSITION": 30,
            "TEXCOORD_0": 31
          },
          "mode": 4,
          "material": 0,
          "indices": 47
        }
      ]
    }
  ],
  "nodes": [
    {
      "name": "scene_5",
      "children": [
        1,
        4,
        8,
        10,
        13,
        19,
        23
      ]
    },
    {
      "name": "layer_01",
      "children": [
        2,
        3
      ]
    },
    {
      "name": "fleur_haute",
      "extras": {
        "renderOrder": 21,
        "renderLayer": "Default"
      },
      "translation": [
        0.0835,
        0.20225,
        0
      ],
      "mesh": 0
    },
    {
      "name": "fleur_blanche",
      "extras": {
        "renderOrder": 20,
        "renderLayer": "Default"
      },
      "mesh": 1
    },
    {
      "name": "layer_02",
      "children": [
        5,
        6,
        7
      ]
    },
    {
      "name": "owl",
      "extras": {
        "renderOrder": 18,
        "renderLayer": "Default"
      },
      "translation": [
        0.3140625,
        -0.0442499965,
        0
      ],
      "mesh": 2
    },
    {
      "name": "branche",
      "extras": {
        "renderOrder": 17,
        "renderLayer": "Default"
      },
      "translation": [
        0.302,
        -0.2084375,
        0
      ],
      "mesh": 3
    },
    {
      "name": "particles",
      "extras": {
        "renderOrder": 16,
        "renderLayer": "Default"
      },
      "mesh": 4
    },
    {
      "name": "layer_03",
      "children": [
        9
      ]
    },
    {
      "name": "ballon",
      "extras": {
        "renderOrder": 15,
        "renderLayer": "Default"
      },
      "translation": [
        0,
        -0.1328125,
        0
      ],
      "mesh": 5
    },
    {
      "name": "layer_04",
      "children": [
        11,
        12
      ]
    },
    {
      "name": "buissons_bas",
      "extras": {
        "renderOrder": 13,
        "renderLayer": "Default"
      },
      "translation": [
        -0.4265625,
        -0.2223125,
        0
      ],
      "mesh": 6
    },
    {
      "name": "guirlande",
      "extras": {
        "renderOrder": 12,
        "renderLayer": "Default"
      },
      "translation": [
        0,
        0.132687509,
        0
      ],
      "mesh": 7
    },
    {
      "name": "layer_05",
      "children": [
        14,
        15,
        16,
        17,
        18
      ]
    },
    {
      "name": "ant",
      "extras": {
        "renderOrder": 10,
        "renderLayer": "Default"
      },
      "translation": [
        -0.1994375,
        0.12075001,
        0
      ],
      "mesh": 8
    },
    {
      "name": "arbre_droit",
      "extras": {
        "renderOrder": 9,
        "renderLayer": "Default"
      },
      "translation": [
        -0.209062517,
        0,
        0
      ],
      "mesh": 9
    },
    {
      "name": "arbre_gauche",
      "extras": {
        "renderOrder": 8,
        "renderLayer": "Default"
      },
      "translation": [
        0.399625,
        0,
        0
      ],
      "mesh": 10
    },
    {
      "name": "arbre_feuillage",
      "extras": {
        "renderOrder": 7,
        "renderLayer": "Default"
      },
      "translation": [
        -0.0280625224,
        0.216437489,
        0
      ],
      "mesh": 11
    },
    {
      "name": "light",
      "extras": {
        "renderOrder": 6,
        "renderLayer": "Default"
      },
      "translation": [
        -0.5,
        0.282,
        0
      ],
      "mesh": 4
    },
    {
      "name": "layer_06",
      "children": [
        20,
        21,
        22
      ]
    },
    {
      "name": "arbre_3",
      "extras": {
        "renderOrder": 5,
        "renderLayer": "Default"
      },
      "translation": [
        -0.436875,
        0,
        0
      ],
      "mesh": 12
    },
    {
      "name": "arbre_4",
      "extras": {
        "renderOrder": 4,
        "renderLayer": "Default"
      },
      "translation": [
        0.289,
        0.103312492,
        0
      ],
      "mesh": 13
    },
    {
      "name": "baniere",
      "extras": {
        "renderOrder": 3,
        "renderLayer": "Default"
      },
      "translation": [
        0.08675,
        0.109437495,
        0
      ],
      "mesh": 14
    },
    {
      "name": "layer_07",
      "children": [
        24
      ]
    },
    {
      "name": "ciel",
      "extras": {
        "renderOrder": 1,
        "renderLayer": "Default"
      },
      "mesh": 15
    }
  ],
  "scenes": [
    {
      "name": "scene_5",
      "nodes": [
        0
      ]
    }
  ],
  "scene": 0,
  "extensionsUsed": [
    "KHR_materials_unlit",
    "KHR_texture_basisu"
  ],
  "extensionsRequired": [
    "KHR_materials_unlit",
    "KHR_texture_basisu"
  ]
}