{
  "asset": {
    "generator": "glTF-Transform v2.1.7",
    "version": "2.0"
  },
  "accessors": [
    {
      "type": "VEC3",
      "componentType": 5126,
      "count": 12,
      "max": [
        0.03361230343580246,
        0.0651874989271164,
        0
      ],
      "min": [
        -0.03361230343580246,
        -0.0651874989271164,
        0
      ],
      "bufferView": 0,
      "byteOffset": 0
    },
    {
      "type": "VEC2",
      "componentType": 5126,
      "count": 12,
      "bufferView": 0,
      "byteOffset": 12
    },
    {
      "type": "VEC3",
      "componentType": 5126,
      "count": 63,
      "max": [
        0.500142514705658,
        0.2056249976158142,
        0
      ],
      "min": [
        -0.500142514705658,
        -0.2056249976158142,
        0
      ],
      "bufferView": 1,
      "byteOffset": 0
    },
    {
      "type": "VEC2",
      "componentType": 5126,
      "count": 63,
      "bufferView": 1,
      "byteOffset": 12
    },
    {
      "type": "VEC3",
      "componentType": 5126,
      "count": 48,
      "max": [
        0.07976017892360687,
        0.07275000214576721,
        0
      ],
      "min": [
        -0.07976017892360687,
        -0.07275000214576721,
        0
      ],
      "bufferView": 2,
      "byteOffset": 0
    },
    {
      "type": "VEC2",
      "componentType": 5126,
      "count": 48,
      "bufferView": 2,
      "byteOffset": 12
    },
    {
      "type": "VEC3",
      "componentType": 5126,
      "count": 13,
      "max": [
        0.49800002574920654,
        0.06225000321865082,
        0
      ],
      "min": [
        -0.49800002574920654,
        -0.06225000321865082,
        0
      ],
      "bufferView": 3,
      "byteOffset": 0
    },
    {
      "type": "VEC2",
      "componentType": 5126,
      "count": 13,
      "bufferView": 3,
      "byteOffset": 12
    },
    {
      "type": "VEC3",
      "componentType": 5126,
      "count": 48,
      "max": [
        0.10300000011920929,
        0.10784458369016647,
        0
      ],
      "min": [
        -0.10300000011920929,
        -0.10784458369016647,
        0
      ],
      "bufferView": 4,
      "byteOffset": 0
    },
    {
      "type": "VEC2",
      "componentType": 5126,
      "count": 48,
      "bufferView": 4,
      "byteOffset": 12
    },
    {
      "type": "VEC3",
      "componentType": 5126,
      "count": 4,
      "max": [
        0.06400000303983688,
        0.06400000303983688,
        0
      ],
      "min": [
        -0.06400000303983688,
        -0.06400000303983688,
        0
      ],
      "bufferView": 5,
      "byteOffset": 0
    },
    {
      "type": "VEC2",
      "componentType": 5126,
      "count": 4,
      "bufferView": 5,
      "byteOffset": 12
    },
    {
      "type": "VEC3",
      "componentType": 5126,
      "count": 22,
      "max": [
        0.19731004536151886,
        0.08824999630451202,
        0
      ],
      "min": [
        -0.19731004536151886,
        -0.08824999630451202,
        0
      ],
      "bufferView": 6,
      "byteOffset": 0
    },
    {
      "type": "VEC2",
      "componentType": 5126,
      "count": 22,
      "bufferView": 6,
      "byteOffset": 12
    },
    {
      "type": "VEC3",
      "componentType": 5126,
      "count": 44,
      "max": [
        0.17505614459514618,
        0.2409375011920929,
        0
      ],
      "min": [
        -0.17505614459514618,
        -0.2409375011920929,
        0
      ],
      "bufferView": 7,
      "byteOffset": 0
    },
    {
      "type": "VEC2",
      "componentType": 5126,
      "count": 44,
      "bufferView": 7,
      "byteOffset": 12
    },
    {
      "type": "VEC3",
      "componentType": 5126,
      "count": 57,
      "max": [
        0.19185790419578552,
        0.2640624940395355,
        0
      ],
      "min": [
        -0.19185790419578552,
        -0.2640624940395355,
        0
      ],
      "bufferView": 8,
      "byteOffset": 0
    },
    {
      "type": "VEC2",
      "componentType": 5126,
      "count": 57,
      "bufferView": 8,
      "byteOffset": 12
    },
    {
      "type": "VEC3",
      "componentType": 5126,
      "count": 35,
      "max": [
        0.05051293969154358,
        0.05456249788403511,
        0
      ],
      "min": [
        -0.05051293969154358,
        -0.05456249788403511,
        0
      ],
      "bufferView": 9,
      "byteOffset": 0
    },
    {
      "type": "VEC2",
      "componentType": 5126,
      "count": 35,
      "bufferView": 9,
      "byteOffset": 12
    },
    {
      "type": "VEC3",
      "componentType": 5126,
      "count": 42,
      "max": [
        0.12048230320215225,
        0.16106250882148743,
        0
      ],
      "min": [
        -0.12048230320215225,
        -0.16106250882148743,
        0
      ],
      "bufferView": 10,
      "byteOffset": 0
    },
    {
      "type": "VEC2",
      "componentType": 5126,
      "count": 42,
      "bufferView": 10,
      "byteOffset": 12
    },
    {
      "type": "VEC3",
      "componentType": 5126,
      "count": 10,
      "max": [
        0.36125001311302185,
        0.033161621540784836,
        0
      ],
      "min": [
        -0.36125001311302185,
        -0.033161621540784836,
        0
      ],
      "bufferView": 11,
      "byteOffset": 0
    },
    {
      "type": "VEC2",
      "componentType": 5126,
      "count": 10,
      "bufferView": 11,
      "byteOffset": 12
    },
    {
      "type": "VEC3",
      "componentType": 5126,
      "count": 52,
      "max": [
        0.07518976181745529,
        0.06887499988079071,
        0
      ],
      "min": [
        -0.07518976181745529,
        -0.06887499988079071,
        0
      ],
      "bufferView": 12,
      "byteOffset": 0
    },
    {
      "type": "VEC2",
      "componentType": 5126,
      "count": 52,
      "bufferView": 12,
      "byteOffset": 12
    },
    {
      "type": "VEC3",
      "componentType": 5126,
      "count": 12,
      "max": [
        0.5011973977088928,
        0.1536874920129776,
        0
      ],
      "min": [
        -0.5011973977088928,
        -0.1536874920129776,
        0
      ],
      "bufferView": 13,
      "byteOffset": 0
    },
    {
      "type": "VEC2",
      "componentType": 5126,
      "count": 12,
      "bufferView": 13,
      "byteOffset": 12
    },
    {
      "type": "VEC3",
      "componentType": 5126,
      "count": 19,
      "max": [
        0.500377357006073,
        0.2071874886751175,
        0
      ],
      "min": [
        -0.500377357006073,
        -0.2071874886751175,
        0
      ],
      "bufferView": 14,
      "byteOffset": 0
    },
    {
      "type": "VEC2",
      "componentType": 5126,
      "count": 19,
      "bufferView": 14,
      "byteOffset": 12
    },
    {
      "type": "VEC3",
      "componentType": 5126,
      "count": 21,
      "max": [
        0.37281250953674316,
        0.1878625452518463,
        0
      ],
      "min": [
        -0.37281250953674316,
        -0.1878625452518463,
        0
      ],
      "bufferView": 15,
      "byteOffset": 0
    },
    {
      "type": "VEC2",
      "componentType": 5126,
      "count": 21,
      "bufferView": 15,
      "byteOffset": 12
    },
    {
      "type": "VEC3",
      "componentType": 5126,
      "count": 4,
      "max": [
        0.5,
        0.28125,
        0
      ],
      "min": [
        -0.5,
        -0.28125,
        0
      ],
      "bufferView": 16,
      "byteOffset": 0
    },
    {
      "type": "VEC2",
      "componentType": 5126,
      "count": 4,
      "bufferView": 16,
      "byteOffset": 12
    },
    {
      "type": "SCALAR",
      "componentType": 5121,
      "count": 30,
      "bufferView": 17,
      "byteOffset": 0
    },
    {
      "type": "SCALAR",
      "componentType": 5121,
      "count": 183,
      "bufferView": 17,
      "byteOffset": 32
    },
    {
      "type": "SCALAR",
      "componentType": 5121,
      "count": 138,
      "bufferView": 17,
      "byteOffset": 216
    },
    {
      "type": "SCALAR",
      "componentType": 5121,
      "count": 27,
      "bufferView": 17,
      "byteOffset": 356
    },
    {
      "type": "SCALAR",
      "componentType": 5121,
      "count": 138,
      "bufferView": 17,
      "byteOffset": 384
    },
    {
      "type": "SCALAR",
      "componentType": 5121,
      "count": 6,
      "bufferView": 17,
      "byteOffset": 524
    },
    {
      "type": "SCALAR",
      "componentType": 5121,
      "count": 60,
      "bufferView": 17,
      "byteOffset": 532
    },
    {
      "type": "SCALAR",
      "componentType": 5121,
      "count": 129,
      "bufferView": 17,
      "byteOffset": 592
    },
    {
      "type": "SCALAR",
      "componentType": 5121,
      "count": 153,
      "bufferView": 17,
      "byteOffset": 724
    },
    {
      "type": "SCALAR",
      "componentType": 5121,
      "count": 114,
      "bufferView": 17,
      "byteOffset": 880
    },
    {
      "type": "SCALAR",
      "componentType": 5121,
      "count": 120,
      "bufferView": 17,
      "byteOffset": 996
    },
    {
      "type": "SCALAR",
      "componentType": 5121,
      "count": 24,
      "bufferView": 17,
      "byteOffset": 1116
    },
    {
      "type": "SCALAR",
      "componentType": 5121,
      "count": 150,
      "bufferView": 17,
      "byteOffset": 1140
    },
    {
      "type": "SCALAR",
      "componentType": 5121,
      "count": 24,
      "bufferView": 17,
      "byteOffset": 1292
    },
    {
      "type": "SCALAR",
      "componentType": 5121,
      "count": 45,
      "bufferView": 17,
      "byteOffset": 1316
    },
    {
      "type": "SCALAR",
      "componentType": 5121,
      "count": 60,
      "bufferView": 17,
      "byteOffset": 1364
    },
    {
      "type": "SCALAR",
      "componentType": 5121,
      "count": 6,
      "bufferView": 17,
      "byteOffset": 1424
    }
  ],
  "bufferViews": [
    {
      "buffer": 0,
      "byteOffset": 0,
      "byteLength": 240,
      "byteStride": 20,
      "target": 34962
    },
    {
      "buffer": 0,
      "byteOffset": 240,
      "byteLength": 1260,
      "byteStride": 20,
      "target": 34962
    },
    {
      "buffer": 0,
      "byteOffset": 1500,
      "byteLength": 960,
      "byteStride": 20,
      "target": 34962
    },
    {
      "buffer": 0,
      "byteOffset": 2460,
      "byteLength": 260,
      "byteStride": 20,
      "target": 34962
    },
    {
      "buffer": 0,
      "byteOffset": 2720,
      "byteLength": 960,
      "byteStride": 20,
      "target": 34962
    },
    {
      "buffer": 0,
      "byteOffset": 3680,
      "byteLength": 80,
      "byteStride": 20,
      "target": 34962
    },
    {
      "buffer": 0,
      "byteOffset": 3760,
      "byteLength": 440,
      "byteStride": 20,
      "target": 34962
    },
    {
      "buffer": 0,
      "byteOffset": 4200,
      "byteLength": 880,
      "byteStride": 20,
      "target": 34962
    },
    {
      "buffer": 0,
      "byteOffset": 5080,
      "byteLength": 1140,
      "byteStride": 20,
      "target": 34962
    },
    {
      "buffer": 0,
      "byteOffset": 6220,
      "byteLength": 700,
      "byteStride": 20,
      "target": 34962
    },
    {
      "buffer": 0,
      "byteOffset": 6920,
      "byteLength": 840,
      "byteStride": 20,
      "target": 34962
    },
    {
      "buffer": 0,
      "byteOffset": 7760,
      "byteLength": 200,
      "byteStride": 20,
      "target": 34962
    },
    {
      "buffer": 0,
      "byteOffset": 7960,
      "byteLength": 1040,
      "byteStride": 20,
      "target": 34962
    },
    {
      "buffer": 0,
      "byteOffset": 9000,
      "byteLength": 240,
      "byteStride": 20,
      "target": 34962
    },
    {
      "buffer": 0,
      "byteOffset": 9240,
      "byteLength": 380,
      "byteStride": 20,
      "target": 34962
    },
    {
      "buffer": 0,
      "byteOffset": 9620,
      "byteLength": 420,
      "byteStride": 20,
      "target": 34962
    },
    {
      "buffer": 0,
      "byteOffset": 10040,
      "byteLength": 80,
      "byteStride": 20,
      "target": 34962
    },
    {
      "buffer": 0,
      "byteOffset": 10120,
      "byteLength": 1432,
      "target": 34963
    }
  ],
  "samplers": [
    {
      "minFilter": 9987,
      "wrapS": 33071,
      "wrapT": 33071
    },
    {
      "minFilter": 9985,
      "wrapS": 33071,
      "wrapT": 33071
    }
  ],
  "textures": [
    {
      "sampler": 0,
      "extensions": {
        "KHR_texture_basisu": {
          "source": 0
        }
      }
    },
    {
      "sampler": 1,
      "extensions": {
        "KHR_texture_basisu": {
          "source": 1
        }
      }
    }
  ],
  "images": [
    {
      "name": "sactx-0-2048x2048-Uncompressed-scene_3_5_atlas-e70498e4",
      "mimeType": "image/ktx2",
      "uri": "sactx-0-2048x2048-Uncompressed-scene_3_5_atlas-e70498e4.ktx2"
    },
    {
      "name": "user_avatar",
      "mimeType": "image/ktx2",
      "uri": "user_avatar.ktx2"
    }
  ],
  "buffers": [
    {
      "uri": "scene_4.bin",
      "byteLength": 11552
    }
  ],
  "materials": [
    {
      "name": "Sprites-Default",
      "alphaMode": "BLEND",
      "pbrMetallicRoughness": {
        "baseColorTexture": {
          "index": 0
        }
      },
      "extensions": {
        "KHR_materials_unlit": {}
      }
    },
    {
      "name": "Sprites-Default",
      "alphaMode": "BLEND",
      "pbrMetallicRoughness": {
        "baseColorTexture": {
          "index": 1
        }
      },
      "extensions": {
        "KHR_materials_unlit": {}
      }
    }
  ],
  "meshes": [
    {
      "name": "fleur_1",
      "primitives": [
        {
          "attributes": {
            "POSITION": 0,
            "TEXCOORD_0": 1
          },
          "mode": 4,
          "material": 0,
          "indices": 34
        }
      ]
    },
    {
      "name": "fleur_2",
      "primitives": [
        {
          "attributes": {
            "POSITION": 2,
            "TEXCOORD_0": 3
          },
          "mode": 4,
          "material": 0,
          "indices": 35
        }
      ]
    },
    {
      "name": "fleur_haute",
      "primitives": [
        {
          "attributes": {
            "POSITION": 4,
            "TEXCOORD_0": 5
          },
          "mode": 4,
          "material": 0,
          "indices": 36
        }
      ]
    },
    {
      "name": "fleur basses",
      "primitives": [
        {
          "attributes": {
            "POSITION": 6,
            "TEXCOORD_0": 7
          },
          "mode": 4,
          "material": 0,
          "indices": 37
        }
      ]
    },
    {
      "name": "buisson",
      "primitives": [
        {
          "attributes": {
            "POSITION": 8,
            "TEXCOORD_0": 9
          },
          "mode": 4,
          "material": 0,
          "indices": 38
        }
      ]
    },
    {
      "name": "particles",
      "primitives": [
        {
          "attributes": {
            "POSITION": 10,
            "TEXCOORD_0": 11
          },
          "mode": 4,
          "material": 1,
          "indices": 39
        }
      ]
    },
    {
      "name": "table",
      "primitives": [
        {
          "attributes": {
            "POSITION": 12,
            "TEXCOORD_0": 13
          },
          "mode": 4,
          "material": 0,
          "indices": 40
        }
      ]
    },
    {
      "name": "lion",
      "primitives": [
        {
          "attributes": {
            "POSITION": 14,
            "TEXCOORD_0": 15
          },
          "mode": 4,
          "material": 0,
          "indices": 41
        }
      ]
    },
    {
      "name": "bear",
      "primitives": [
        {
          "attributes": {
            "POSITION": 16,
            "TEXCOORD_0": 17
          },
          "mode": 4,
          "material": 0,
          "indices": 42
        }
      ]
    },
    {
      "name": "ant",
      "primitives": [
        {
          "attributes": {
            "POSITION": 18,
            "TEXCOORD_0": 19
          },
          "mode": 4,
          "material": 0,
          "indices": 43
        }
      ]
    },
    {
      "name": "dog",
      "primitives": [
        {
          "attributes": {
            "POSITION": 20,
            "TEXCOORD_0": 21
          },
          "mode": 4,
          "material": 0,
          "indices": 44
        }
      ]
    },
    {
      "name": "fourmiliere",
      "primitives": [
        {
          "attributes": {
            "POSITION": 22,
            "TEXCOORD_0": 23
          },
          "mode": 4,
          "material": 0,
          "indices": 45
        }
      ]
    },
    {
      "name": "buisson_haut",
      "primitives": [
        {
          "attributes": {
            "POSITION": 24,
            "TEXCOORD_0": 25
          },
          "mode": 4,
          "material": 0,
          "indices": 46
        }
      ]
    },
    {
      "name": "plaine",
      "primitives": [
        {
          "attributes": {
            "POSITION": 26,
            "TEXCOORD_0": 27
          },
          "mode": 4,
          "material": 0,
          "indices": 47
        }
      ]
    },
    {
      "name": "buissons_2",
      "primitives": [
        {
          "attributes": {
            "POSITION": 28,
            "TEXCOORD_0": 29
          },
          "mode": 4,
          "material": 0,
          "indices": 48
        }
      ]
    },
    {
      "name": "buissons_3",
      "primitives": [
        {
          "attributes": {
            "POSITION": 30,
            "TEXCOORD_0": 31
          },
          "mode": 4,
          "material": 0,
          "indices": 49
        }
      ]
    },
    {
      "name": "ciel",
      "primitives": [
        {
          "attributes": {
            "POSITION": 32,
            "TEXCOORD_0": 33
          },
          "mode": 4,
          "material": 0,
          "indices": 50
        }
      ]
    }
  ],
  "nodes": [
    {
      "name": "scene_4",
      "children": [
        1,
        8,
        15,
        19,
        22
      ]
    },
    {
      "name": "layer_01",
      "children": [
        2,
        3,
        4,
        5,
        6,
        7
      ]
    },
    {
      "name": "fleur_1",
      "extras": {
        "renderOrder": 20,
        "renderLayer": "Default"
      },
      "translation": [
        0.4664375,
        -0.0493125021,
        0
      ],
      "mesh": 0
    },
    {
      "name": "fleur_2",
      "extras": {
        "renderOrder": 19,
        "renderLayer": "Default"
      },
      "translation": [
        0,
        -0.075625,
        0
      ],
      "mesh": 1
    },
    {
      "name": "fleur_haute",
      "extras": {
        "renderOrder": 18,
        "renderLayer": "Default"
      },
      "translation": [
        0.42025,
        0.2085,
        0
      ],
      "mesh": 2
    },
    {
      "name": "fleur basses",
      "extras": {
        "renderOrder": 17,
        "renderLayer": "Default"
      },
      "translation": [
        -0.00306248665,
        -0.219,
        0
      ],
      "mesh": 3
    },
    {
      "name": "buisson",
      "extras": {
        "renderOrder": 16,
        "renderLayer": "Default"
      },
      "translation": [
        -0.397,
        -0.1735,
        0
      ],
      "mesh": 4
    },
    {
      "name": "particles",
      "extras": {
        "renderOrder": 15,
        "renderLayer": "Default"
      },
      "mesh": 5
    },
    {
      "name": "layer_02",
      "children": [
        9,
        10,
        11,
        12,
        13,
        14
      ]
    },
    {
      "name": "table",
      "extras": {
        "renderOrder": 14,
        "renderLayer": "Default"
      },
      "translation": [
        -0.0159999728,
        -0.1585,
        0
      ],
      "mesh": 6
    },
    {
      "name": "lion",
      "extras": {
        "renderOrder": 13,
        "renderLayer": "Default"
      },
      "translation": [
        0.235312492,
        -0.0235624909,
        0
      ],
      "mesh": 7
    },
    {
      "name": "bear",
      "extras": {
        "renderOrder": 12,
        "renderLayer": "Default"
      },
      "translation": [
        -0.285749972,
        0.00393751264,
        0
      ],
      "mesh": 8
    },
    {
      "name": "ant",
      "extras": {
        "renderOrder": 11,
        "renderLayer": "Default"
      },
      "translation": [
        0.02974999,
        -0.1929375,
        0
      ],
      "mesh": 9
    },
    {
      "name": "dog",
      "extras": {
        "renderOrder": 10,
        "renderLayer": "Default"
      },
      "translation": [
        -0.143875,
        -0.06856249,
        0
      ],
      "mesh": 10
    },
    {
      "name": "fourmiliere",
      "extras": {
        "renderOrder": 9,
        "renderLayer": "Default"
      },
      "translation": [
        -0.0258749723,
        -0.248250008,
        0
      ],
      "mesh": 11
    },
    {
      "name": "layer_03",
      "children": [
        16,
        17,
        18
      ]
    },
    {
      "name": "buisson_haut",
      "extras": {
        "renderOrder": 7,
        "renderLayer": "Default"
      },
      "translation": [
        -0.4248125,
        0.212374985,
        0
      ],
      "mesh": 12
    },
    {
      "name": "plaine",
      "extras": {
        "renderOrder": 6,
        "renderLayer": "Default"
      },
      "translation": [
        0,
        -0.1275625,
        0
      ],
      "mesh": 13
    },
    {
      "name": "light",
      "extras": {
        "renderOrder": 5,
        "renderLayer": "Default"
      },
      "translation": [
        -0.5,
        0.282,
        0
      ],
      "mesh": 5
    },
    {
      "name": "layer_04",
      "children": [
        20,
        21
      ]
    },
    {
      "name": "buissons_2",
      "extras": {
        "renderOrder": 4,
        "renderLayer": "Default"
      },
      "translation": [
        0,
        -0.0721875,
        0
      ],
      "mesh": 14
    },
    {
      "name": "buissons_3",
      "extras": {
        "renderOrder": 3,
        "renderLayer": "Default"
      },
      "translation": [
        0.12718749,
        -0.0699375,
        0
      ],
      "mesh": 15
    },
    {
      "name": "layer_05",
      "children": [
        23
      ]
    },
    {
      "name": "ciel",
      "extras": {
        "renderOrder": 1,
        "renderLayer": "Default"
      },
      "mesh": 16
    }
  ],
  "scenes": [
    {
      "name": "scene_4",
      "nodes": [
        0
      ]
    }
  ],
  "scene": 0,
  "extensionsUsed": [
    "KHR_materials_unlit",
    "KHR_texture_basisu"
  ],
  "extensionsRequired": [
    "KHR_materials_unlit",
    "KHR_texture_basisu"
  ]
}