{
  "asset": {
    "generator": "glTF-Transform v2.1.7",
    "version": "2.0"
  },
  "accessors": [
    {
      "type": "VEC3",
      "componentType": 5126,
      "count": 60,
      "max": [
        0.33027520775794983,
        0.28125,
        0
      ],
      "min": [
        -0.33027520775794983,
        -0.28125,
        0
      ],
      "bufferView": 0,
      "byteOffset": 0
    },
    {
      "type": "VEC2",
      "componentType": 5126,
      "count": 60,
      "bufferView": 0,
      "byteOffset": 12
    },
    {
      "type": "VEC3",
      "componentType": 5126,
      "count": 112,
      "max": [
        0.22599999606609344,
        0.22335155308246613,
        0
      ],
      "min": [
        -0.22599999606609344,
        -0.22335155308246613,
        0
      ],
      "bufferView": 1,
      "byteOffset": 0
    },
    {
      "type": "VEC2",
      "componentType": 5126,
      "count": 112,
      "bufferView": 1,
      "byteOffset": 12
    },
    {
      "type": "VEC3",
      "componentType": 5126,
      "count": 48,
      "max": [
        0.1195320338010788,
        0.08381249755620956,
        0
      ],
      "min": [
        -0.1195320338010788,
        -0.08381249755620956,
        0
      ],
      "bufferView": 2,
      "byteOffset": 0
    },
    {
      "type": "VEC2",
      "componentType": 5126,
      "count": 48,
      "bufferView": 2,
      "byteOffset": 12
    },
    {
      "type": "VEC3",
      "componentType": 5126,
      "count": 15,
      "max": [
        0.3766331374645233,
        0.10225000977516174,
        0
      ],
      "min": [
        -0.3766331374645233,
        -0.10225000977516174,
        0
      ],
      "bufferView": 3,
      "byteOffset": 0
    },
    {
      "type": "VEC2",
      "componentType": 5126,
      "count": 15,
      "bufferView": 3,
      "byteOffset": 12
    },
    {
      "type": "VEC3",
      "componentType": 5126,
      "count": 34,
      "max": [
        0.1495000123977661,
        0.047886721789836884,
        0
      ],
      "min": [
        -0.1495000123977661,
        -0.047886721789836884,
        0
      ],
      "bufferView": 4,
      "byteOffset": 0
    },
    {
      "type": "VEC2",
      "componentType": 5126,
      "count": 34,
      "bufferView": 4,
      "byteOffset": 12
    },
    {
      "type": "VEC3",
      "componentType": 5126,
      "count": 4,
      "max": [
        0.06400000303983688,
        0.06400000303983688,
        0
      ],
      "min": [
        -0.06400000303983688,
        -0.06400000303983688,
        0
      ],
      "bufferView": 5,
      "byteOffset": 0
    },
    {
      "type": "VEC2",
      "componentType": 5126,
      "count": 4,
      "bufferView": 5,
      "byteOffset": 12
    },
    {
      "type": "VEC3",
      "componentType": 5126,
      "count": 116,
      "max": [
        0.20841577649116516,
        0.25837498903274536,
        0
      ],
      "min": [
        -0.20841577649116516,
        -0.25837498903274536,
        0
      ],
      "bufferView": 6,
      "byteOffset": 0
    },
    {
      "type": "VEC2",
      "componentType": 5126,
      "count": 116,
      "bufferView": 6,
      "byteOffset": 12
    },
    {
      "type": "VEC3",
      "componentType": 5126,
      "count": 68,
      "max": [
        0.08374999463558197,
        0.08195067942142487,
        0
      ],
      "min": [
        -0.08374999463558197,
        -0.08195067942142487,
        0
      ],
      "bufferView": 7,
      "byteOffset": 0
    },
    {
      "type": "VEC2",
      "componentType": 5126,
      "count": 68,
      "bufferView": 7,
      "byteOffset": 12
    },
    {
      "type": "VEC3",
      "componentType": 5126,
      "count": 65,
      "max": [
        0.16381250321865082,
        0.13725696504116058,
        0
      ],
      "min": [
        -0.16381250321865082,
        -0.13725696504116058,
        0
      ],
      "bufferView": 8,
      "byteOffset": 0
    },
    {
      "type": "VEC2",
      "componentType": 5126,
      "count": 65,
      "bufferView": 8,
      "byteOffset": 12
    },
    {
      "type": "VEC3",
      "componentType": 5126,
      "count": 20,
      "max": [
        0.21906249225139618,
        0.059044186025857925,
        0
      ],
      "min": [
        -0.21906249225139618,
        -0.059044186025857925,
        0
      ],
      "bufferView": 9,
      "byteOffset": 0
    },
    {
      "type": "VEC2",
      "componentType": 5126,
      "count": 20,
      "bufferView": 9,
      "byteOffset": 12
    },
    {
      "type": "VEC3",
      "componentType": 5126,
      "count": 15,
      "max": [
        0.2957333028316498,
        0.06931249797344208,
        0
      ],
      "min": [
        -0.2957333028316498,
        -0.06931249797344208,
        0
      ],
      "bufferView": 10,
      "byteOffset": 0
    },
    {
      "type": "VEC2",
      "componentType": 5126,
      "count": 15,
      "bufferView": 10,
      "byteOffset": 12
    },
    {
      "type": "VEC3",
      "componentType": 5126,
      "count": 51,
      "max": [
        0.029875000938773155,
        0.04308732599020004,
        0
      ],
      "min": [
        -0.029875000938773155,
        -0.04308732599020004,
        0
      ],
      "bufferView": 11,
      "byteOffset": 0
    },
    {
      "type": "VEC2",
      "componentType": 5126,
      "count": 51,
      "bufferView": 11,
      "byteOffset": 12
    },
    {
      "type": "VEC3",
      "componentType": 5126,
      "count": 26,
      "max": [
        0.22152484953403473,
        0.07831249386072159,
        0
      ],
      "min": [
        -0.22152484953403473,
        -0.07831249386072159,
        0
      ],
      "bufferView": 12,
      "byteOffset": 0
    },
    {
      "type": "VEC2",
      "componentType": 5126,
      "count": 26,
      "bufferView": 12,
      "byteOffset": 12
    },
    {
      "type": "VEC3",
      "componentType": 5126,
      "count": 52,
      "max": [
        0.08619104325771332,
        0.11643750965595245,
        0
      ],
      "min": [
        -0.08619104325771332,
        -0.11643750965595245,
        0
      ],
      "bufferView": 13,
      "byteOffset": 0
    },
    {
      "type": "VEC2",
      "componentType": 5126,
      "count": 52,
      "bufferView": 13,
      "byteOffset": 12
    },
    {
      "type": "VEC3",
      "componentType": 5126,
      "count": 114,
      "max": [
        0.07643749564886093,
        0.10408510267734528,
        0
      ],
      "min": [
        -0.07643749564886093,
        -0.10408510267734528,
        0
      ],
      "bufferView": 14,
      "byteOffset": 0
    },
    {
      "type": "VEC2",
      "componentType": 5126,
      "count": 114,
      "bufferView": 14,
      "byteOffset": 12
    },
    {
      "type": "VEC3",
      "componentType": 5126,
      "count": 67,
      "max": [
        0.10209766030311584,
        0.11800000071525574,
        0
      ],
      "min": [
        -0.10209766030311584,
        -0.11800000071525574,
        0
      ],
      "bufferView": 15,
      "byteOffset": 0
    },
    {
      "type": "VEC2",
      "componentType": 5126,
      "count": 67,
      "bufferView": 15,
      "byteOffset": 12
    },
    {
      "type": "VEC3",
      "componentType": 5126,
      "count": 32,
      "max": [
        0.5008485317230225,
        0.25824999809265137,
        0
      ],
      "min": [
        -0.5008485317230225,
        -0.25824999809265137,
        0
      ],
      "bufferView": 16,
      "byteOffset": 0
    },
    {
      "type": "VEC2",
      "componentType": 5126,
      "count": 32,
      "bufferView": 16,
      "byteOffset": 12
    },
    {
      "type": "VEC3",
      "componentType": 5126,
      "count": 4,
      "max": [
        0.5,
        0.28125,
        0
      ],
      "min": [
        -0.5,
        -0.28125,
        0
      ],
      "bufferView": 17,
      "byteOffset": 0
    },
    {
      "type": "VEC2",
      "componentType": 5126,
      "count": 4,
      "bufferView": 17,
      "byteOffset": 12
    },
    {
      "type": "SCALAR",
      "componentType": 5121,
      "count": 171,
      "bufferView": 18,
      "byteOffset": 0
    },
    {
      "type": "SCALAR",
      "componentType": 5121,
      "count": 363,
      "bufferView": 18,
      "byteOffset": 172
    },
    {
      "type": "SCALAR",
      "componentType": 5121,
      "count": 138,
      "bufferView": 18,
      "byteOffset": 536
    },
    {
      "type": "SCALAR",
      "componentType": 5121,
      "count": 33,
      "bufferView": 18,
      "byteOffset": 676
    },
    {
      "type": "SCALAR",
      "componentType": 5121,
      "count": 114,
      "bufferView": 18,
      "byteOffset": 712
    },
    {
      "type": "SCALAR",
      "componentType": 5121,
      "count": 6,
      "bufferView": 18,
      "byteOffset": 828
    },
    {
      "type": "SCALAR",
      "componentType": 5121,
      "count": 342,
      "bufferView": 18,
      "byteOffset": 836
    },
    {
      "type": "SCALAR",
      "componentType": 5121,
      "count": 198,
      "bufferView": 18,
      "byteOffset": 1180
    },
    {
      "type": "SCALAR",
      "componentType": 5121,
      "count": 189,
      "bufferView": 18,
      "byteOffset": 1380
    },
    {
      "type": "SCALAR",
      "componentType": 5121,
      "count": 60,
      "bufferView": 18,
      "byteOffset": 1572
    },
    {
      "type": "SCALAR",
      "componentType": 5121,
      "count": 39,
      "bufferView": 18,
      "byteOffset": 1632
    },
    {
      "type": "SCALAR",
      "componentType": 5121,
      "count": 147,
      "bufferView": 18,
      "byteOffset": 1672
    },
    {
      "type": "SCALAR",
      "componentType": 5121,
      "count": 72,
      "bufferView": 18,
      "byteOffset": 1820
    },
    {
      "type": "SCALAR",
      "componentType": 5121,
      "count": 144,
      "bufferView": 18,
      "byteOffset": 1892
    },
    {
      "type": "SCALAR",
      "componentType": 5121,
      "count": 381,
      "bufferView": 18,
      "byteOffset": 2036
    },
    {
      "type": "SCALAR",
      "componentType": 5121,
      "count": 195,
      "bufferView": 18,
      "byteOffset": 2420
    },
    {
      "type": "SCALAR",
      "componentType": 5121,
      "count": 90,
      "bufferView": 18,
      "byteOffset": 2616
    },
    {
      "type": "SCALAR",
      "componentType": 5121,
      "count": 6,
      "bufferView": 18,
      "byteOffset": 2708
    }
  ],
  "bufferViews": [
    {
      "buffer": 0,
      "byteOffset": 0,
      "byteLength": 1200,
      "byteStride": 20,
      "target": 34962
    },
    {
      "buffer": 0,
      "byteOffset": 1200,
      "byteLength": 2240,
      "byteStride": 20,
      "target": 34962
    },
    {
      "buffer": 0,
      "byteOffset": 3440,
      "byteLength": 960,
      "byteStride": 20,
      "target": 34962
    },
    {
      "buffer": 0,
      "byteOffset": 4400,
      "byteLength": 300,
      "byteStride": 20,
      "target": 34962
    },
    {
      "buffer": 0,
      "byteOffset": 4700,
      "byteLength": 680,
      "byteStride": 20,
      "target": 34962
    },
    {
      "buffer": 0,
      "byteOffset": 5380,
      "byteLength": 80,
      "byteStride": 20,
      "target": 34962
    },
    {
      "buffer": 0,
      "byteOffset": 5460,
      "byteLength": 2320,
      "byteStride": 20,
      "target": 34962
    },
    {
      "buffer": 0,
      "byteOffset": 7780,
      "byteLength": 1360,
      "byteStride": 20,
      "target": 34962
    },
    {
      "buffer": 0,
      "byteOffset": 9140,
      "byteLength": 1300,
      "byteStride": 20,
      "target": 34962
    },
    {
      "buffer": 0,
      "byteOffset": 10440,
      "byteLength": 400,
      "byteStride": 20,
      "target": 34962
    },
    {
      "buffer": 0,
      "byteOffset": 10840,
      "byteLength": 300,
      "byteStride": 20,
      "target": 34962
    },
    {
      "buffer": 0,
      "byteOffset": 11140,
      "byteLength": 1020,
      "byteStride": 20,
      "target": 34962
    },
    {
      "buffer": 0,
      "byteOffset": 12160,
      "byteLength": 520,
      "byteStride": 20,
      "target": 34962
    },
    {
      "buffer": 0,
      "byteOffset": 12680,
      "byteLength": 1040,
      "byteStride": 20,
      "target": 34962
    },
    {
      "buffer": 0,
      "byteOffset": 13720,
      "byteLength": 2280,
      "byteStride": 20,
      "target": 34962
    },
    {
      "buffer": 0,
      "byteOffset": 16000,
      "byteLength": 1340,
      "byteStride": 20,
      "target": 34962
    },
    {
      "buffer": 0,
      "byteOffset": 17340,
      "byteLength": 640,
      "byteStride": 20,
      "target": 34962
    },
    {
      "buffer": 0,
      "byteOffset": 17980,
      "byteLength": 80,
      "byteStride": 20,
      "target": 34962
    },
    {
      "buffer": 0,
      "byteOffset": 18060,
      "byteLength": 2716,
      "target": 34963
    }
  ],
  "samplers": [
    {
      "minFilter": 9987,
      "wrapS": 33071,
      "wrapT": 33071
    },
    {
      "minFilter": 9985,
      "wrapS": 33071,
      "wrapT": 33071
    }
  ],
  "textures": [
    {
      "sampler": 0,
      "extensions": {
        "KHR_texture_basisu": {
          "source": 0
        }
      }
    },
    {
      "sampler": 1,
      "extensions": {
        "KHR_texture_basisu": {
          "source": 1
        }
      }
    }
  ],
  "images": [
    {
      "name": "sactx-0-2048x2048-Uncompressed-scene_4_9_atlas-440b79fd",
      "mimeType": "image/ktx2",
      "uri": "sactx-0-2048x2048-Uncompressed-scene_4_9_atlas-440b79fd.ktx2"
    },
    {
      "name": "user_avatar",
      "mimeType": "image/ktx2",
      "uri": "user_avatar.ktx2"
    }
  ],
  "buffers": [
    {
      "uri": "scene_8.bin",
      "byteLength": 20776
    }
  ],
  "materials": [
    {
      "name": "Sprites-Default",
      "alphaMode": "BLEND",
      "pbrMetallicRoughness": {
        "baseColorTexture": {
          "index": 0
        }
      },
      "extensions": {
        "KHR_materials_unlit": {}
      }
    },
    {
      "name": "Sprites-Default",
      "alphaMode": "BLEND",
      "pbrMetallicRoughness": {
        "baseColorTexture": {
          "index": 1
        }
      },
      "extensions": {
        "KHR_materials_unlit": {}
      }
    }
  ],
  "meshes": [
    {
      "name": "feuille",
      "primitives": [
        {
          "attributes": {
            "POSITION": 0,
            "TEXCOORD_0": 1
          },
          "mode": 4,
          "material": 0,
          "indices": 36
        }
      ]
    },
    {
      "name": "branche",
      "primitives": [
        {
          "attributes": {
            "POSITION": 2,
            "TEXCOORD_0": 3
          },
          "mode": 4,
          "material": 0,
          "indices": 37
        }
      ]
    },
    {
      "name": "buisson",
      "primitives": [
        {
          "attributes": {
            "POSITION": 4,
            "TEXCOORD_0": 5
          },
          "mode": 4,
          "material": 0,
          "indices": 38
        }
      ]
    },
    {
      "name": "branche_2",
      "primitives": [
        {
          "attributes": {
            "POSITION": 6,
            "TEXCOORD_0": 7
          },
          "mode": 4,
          "material": 0,
          "indices": 39
        }
      ]
    },
    {
      "name": "motte",
      "primitives": [
        {
          "attributes": {
            "POSITION": 8,
            "TEXCOORD_0": 9
          },
          "mode": 4,
          "material": 0,
          "indices": 40
        }
      ]
    },
    {
      "name": "particles",
      "primitives": [
        {
          "attributes": {
            "POSITION": 10,
            "TEXCOORD_0": 11
          },
          "mode": 4,
          "material": 1,
          "indices": 41
        }
      ]
    },
    {
      "name": "gireffe",
      "primitives": [
        {
          "attributes": {
            "POSITION": 12,
            "TEXCOORD_0": 13
          },
          "mode": 4,
          "material": 0,
          "indices": 42
        }
      ]
    },
    {
      "name": "buisson_2",
      "primitives": [
        {
          "attributes": {
            "POSITION": 14,
            "TEXCOORD_0": 15
          },
          "mode": 4,
          "material": 0,
          "indices": 43
        }
      ]
    },
    {
      "name": "buisson_3",
      "primitives": [
        {
          "attributes": {
            "POSITION": 16,
            "TEXCOORD_0": 17
          },
          "mode": 4,
          "material": 0,
          "indices": 44
        }
      ]
    },
    {
      "name": "plaine",
      "primitives": [
        {
          "attributes": {
            "POSITION": 18,
            "TEXCOORD_0": 19
          },
          "mode": 4,
          "material": 0,
          "indices": 45
        }
      ]
    },
    {
      "name": "plaine_2",
      "primitives": [
        {
          "attributes": {
            "POSITION": 20,
            "TEXCOORD_0": 21
          },
          "mode": 4,
          "material": 0,
          "indices": 46
        }
      ]
    },
    {
      "name": "bear",
      "primitives": [
        {
          "attributes": {
            "POSITION": 22,
            "TEXCOORD_0": 23
          },
          "mode": 4,
          "material": 0,
          "indices": 47
        }
      ]
    },
    {
      "name": "plaine_3",
      "primitives": [
        {
          "attributes": {
            "POSITION": 24,
            "TEXCOORD_0": 25
          },
          "mode": 4,
          "material": 0,
          "indices": 48
        }
      ]
    },
    {
      "name": "maison",
      "primitives": [
        {
          "attributes": {
            "POSITION": 26,
            "TEXCOORD_0": 27
          },
          "mode": 4,
          "material": 0,
          "indices": 49
        }
      ]
    },
    {
      "name": "arbre",
      "primitives": [
        {
          "attributes": {
            "POSITION": 28,
            "TEXCOORD_0": 29
          },
          "mode": 4,
          "material": 0,
          "indices": 50
        }
      ]
    },
    {
      "name": "plaine_4",
      "primitives": [
        {
          "attributes": {
            "POSITION": 30,
            "TEXCOORD_0": 31
          },
          "mode": 4,
          "material": 0,
          "indices": 51
        }
      ]
    },
    {
      "name": "montagne",
      "primitives": [
        {
          "attributes": {
            "POSITION": 32,
            "TEXCOORD_0": 33
          },
          "mode": 4,
          "material": 0,
          "indices": 52
        }
      ]
    },
    {
      "name": "ciel",
      "primitives": [
        {
          "attributes": {
            "POSITION": 34,
            "TEXCOORD_0": 35
          },
          "mode": 4,
          "material": 0,
          "indices": 53
        }
      ]
    }
  ],
  "nodes": [
    {
      "name": "scene_8",
      "children": [
        1,
        4,
        9,
        11,
        16,
        20,
        23,
        25
      ]
    },
    {
      "name": "layer_01",
      "children": [
        2,
        3
      ]
    },
    {
      "name": "feuille",
      "extras": {
        "renderOrder": 24,
        "renderLayer": "Default"
      },
      "translation": [
        -0.170062482,
        0,
        0
      ],
      "mesh": 0
    },
    {
      "name": "branche",
      "extras": {
        "renderOrder": 23,
        "renderLayer": "Default"
      },
      "translation": [
        -0.274,
        -0.0579375029,
        0
      ],
      "mesh": 1
    },
    {
      "name": "layer_02",
      "children": [
        5,
        6,
        7,
        8
      ]
    },
    {
      "name": "buisson",
      "extras": {
        "renderOrder": 21,
        "renderLayer": "Default"
      },
      "translation": [
        -0.125062525,
        -0.1974375,
        0
      ],
      "mesh": 2
    },
    {
      "name": "branche_2",
      "extras": {
        "renderOrder": 20,
        "renderLayer": "Default"
      },
      "translation": [
        0.02974999,
        -0.17899999,
        0
      ],
      "mesh": 3
    },
    {
      "name": "motte",
      "extras": {
        "renderOrder": 19,
        "renderLayer": "Default"
      },
      "translation": [
        0.33025,
        -0.233375,
        0
      ],
      "mesh": 4
    },
    {
      "name": "particles",
      "extras": {
        "renderOrder": 19,
        "renderLayer": "Default"
      },
      "mesh": 5
    },
    {
      "name": "layer_03",
      "children": [
        10
      ]
    },
    {
      "name": "gireffe",
      "extras": {
        "renderOrder": 17,
        "renderLayer": "Default"
      },
      "translation": [
        -0.2265625,
        -0.022875011,
        0
      ],
      "mesh": 6
    },
    {
      "name": "layer_04",
      "children": [
        12,
        13,
        14,
        15
      ]
    },
    {
      "name": "buisson_2",
      "extras": {
        "renderOrder": 15,
        "renderLayer": "Default"
      },
      "translation": [
        -0.41625,
        -0.199375,
        0
      ],
      "mesh": 7
    },
    {
      "name": "buisson_3",
      "extras": {
        "renderOrder": 14,
        "renderLayer": "Default"
      },
      "translation": [
        -0.336187482,
        -0.144,
        0
      ],
      "mesh": 8
    },
    {
      "name": "plaine",
      "extras": {
        "renderOrder": 13,
        "renderLayer": "Default"
      },
      "translation": [
        0.2700625,
        -0.22225,
        0
      ],
      "mesh": 9
    },
    {
      "name": "plaine_2",
      "extras": {
        "renderOrder": 12,
        "renderLayer": "Default"
      },
      "translation": [
        -0.0350000262,
        -0.2119375,
        0
      ],
      "mesh": 10
    },
    {
      "name": "layer_05",
      "children": [
        17,
        18,
        19
      ]
    },
    {
      "name": "bear",
      "extras": {
        "renderOrder": 10,
        "renderLayer": "Default"
      },
      "translation": [
        0.309125,
        -0.105187505,
        0
      ],
      "mesh": 11
    },
    {
      "name": "plaine_3",
      "extras": {
        "renderOrder": 9,
        "renderLayer": "Default"
      },
      "translation": [
        0.21024999,
        -0.168437511,
        0
      ],
      "mesh": 12
    },
    {
      "name": "maison",
      "extras": {
        "renderOrder": 8,
        "renderLayer": "Default"
      },
      "translation": [
        0.0462499857,
        -0.0513125062,
        0
      ],
      "mesh": 13
    },
    {
      "name": "layer_06",
      "children": [
        21,
        22
      ]
    },
    {
      "name": "arbre",
      "extras": {
        "renderOrder": 6,
        "renderLayer": "Default"
      },
      "translation": [
        0.3865625,
        -0.0240625143,
        0
      ],
      "mesh": 14
    },
    {
      "name": "plaine_4",
      "extras": {
        "renderOrder": 5,
        "renderLayer": "Default"
      },
      "translation": [
        0.398,
        -0.16325,
        0
      ],
      "mesh": 15
    },
    {
      "name": "layer_07",
      "children": [
        24
      ]
    },
    {
      "name": "montagne",
      "extras": {
        "renderOrder": 3,
        "renderLayer": "Default"
      },
      "translation": [
        0,
        -0.0230000019,
        0
      ],
      "mesh": 16
    },
    {
      "name": "layer_08",
      "children": [
        26
      ]
    },
    {
      "name": "ciel",
      "extras": {
        "renderOrder": 1,
        "renderLayer": "Default"
      },
      "mesh": 17
    }
  ],
  "scenes": [
    {
      "name": "scene_8",
      "nodes": [
        0
      ]
    }
  ],
  "scene": 0,
  "extensionsUsed": [
    "KHR_materials_unlit",
    "KHR_texture_basisu"
  ],
  "extensionsRequired": [
    "KHR_materials_unlit",
    "KHR_texture_basisu"
  ]
}